<?xml version="1.0" standalone="no"?>
<!DOCTYPE svg PUBLIC "-//W3C//DTD SVG 1.1//EN" "http://www.w3.org/Graphics/SVG/1.1/DTD/svg11.dtd" >
<svg xmlns="http://www.w3.org/2000/svg" xmlns:xlink="http://www.w3.org/1999/xlink" version="1.1">
<metadata></metadata>
<defs>
<font id="junglefeverregular" horiz-adv-x="1732" >
<font-face units-per-em="2048" ascent="1638" descent="-410" />
<missing-glyph horiz-adv-x="714" />
<glyph horiz-adv-x="0" />
<glyph horiz-adv-x="682" />
<glyph unicode=" "  horiz-adv-x="714" />
<glyph unicode="&#x09;" horiz-adv-x="714" />
<glyph unicode="&#xa0;" horiz-adv-x="714" />
<glyph unicode="!" horiz-adv-x="669" d="M639 231l-272 -276q0 2 -52.5 33.5t-115.5 70.5q-61 39 -113.5 72t-54.5 35l274 309l334 -244v0zM590 670l-428 -164l-125 819l549 127l4 -782v0z" />
<glyph unicode="&#x22;" horiz-adv-x="1140" d="M627 1669l-25 -158q-16 -111 -116.5 -187.5t-217.5 -127.5q-66 -27 -128 -47.5t-109 -34.5l155 555h71h149h152h69v0zM1139 1669l-25 -158q-16 -111 -116.5 -187.5t-217.5 -127.5q-66 -27 -128 -47.5t-109 -34.5l155 555h71h149h152h69v0z" />
<glyph unicode="#" horiz-adv-x="1024" />
<glyph unicode="$" horiz-adv-x="808" d="M737 348q-33 -66 -89 -113t-128 -81v-154h-287v211l-196 108q109 29 164 81.5t55 121.5q-2 31 -11 63.5t-32 69.5q-14 25 -31.5 47.5t-34.5 45.5q-18 20 -35.5 42.5t-31.5 47.5q-18 35 -26.5 66.5t-8.5 60.5q2 59 29.5 110t68.5 96q18 23 41 41.5t49 32.5v207h287v-192 l213 -130q-51 -31 -90 -66.5t-57 -78.5q-2 -6 -5 -12l-6 -12q-4 -12 -5 -24.5t-1 -25.5q0 -31 11.5 -57.5t31.5 -48.5q76 -82 118 -162t42 -158q0 -33 -8 -67.5t-27 -69.5v0z" />
<glyph unicode="%" horiz-adv-x="1024" />
<glyph unicode="&#x26;" horiz-adv-x="1705" d="M1630 653l-272 -198l168 -281l-240 -258l-309 315q-27 -20 -53.5 -41.5t-53.5 -44.5l-1 -1t-3 -1q-45 -41 -94 -78.5t-104 -64.5q-20 -8 -44 -13t-49 -5q-20 0 -41.5 5t-37.5 13q-104 66 -183.5 148.5t-142.5 170.5q-25 31 -47.5 64t-44.5 63q57 139 141 258t199 211 l-133 302q115 86 243.5 148t284.5 87h246l194 -170q10 -8 17.5 -23.5t9.5 -31.5v-5v-5q0 -8 -3 -17.5t-9 -15.5l-238 -234l166 -211l358 215l76 -301v0zM752 420l-183 272l-73 -239q39 -20 85 -28.5t97 -8.5q18 0 36.5 1t37.5 3v0zM940 1171q-53 27 -112.5 43.5t-122.5 26.5 q8 -45 27.5 -88t58.5 -86q45 10 80.5 38t68.5 66v0z" />
<glyph unicode="'" horiz-adv-x="655" d="M627 1669l-25 -158q-16 -111 -116.5 -187.5t-217.5 -127.5q-66 -27 -128 -47.5t-109 -34.5l155 555h71h149h152h69v0z" />
<glyph unicode="(" horiz-adv-x="638" d="M610 76l-65 -367q-221 74 -368.5 329t-147.5 589q0 324 138 574.5t347 334.5l94 -358q-68 -29 -104.5 -126.5t-52.5 -205.5q-8 -55 -11.5 -107.5t-3.5 -97.5q0 -47 4 -106.5t13 -120.5q18 -113 55 -212.5t102 -125.5v0z" />
<glyph unicode=")" horiz-adv-x="638" d="M618 627q0 -334 -147 -589t-369 -327l-65 365q66 27 102.5 126t55.5 212q8 61 12 120.5t4 106.5q0 45 -3 97.5t-11 107.5q-16 109 -53.5 206t-104.5 126l94 358q209 -84 347 -335t138 -574v0z" />
<glyph unicode="*" horiz-adv-x="911" d="M487 1307l-129 20l109 -67l-96 -99l-80 84l31 -104h-140l23 106l-70 -86l-98 99l96 71l-117 -24v139l119 -23l-98 72l98 96l66 -88l-19 109h140l-23 -107l72 86l96 -96l-107 -72l127 23v-139v0z" />
<glyph unicode="+" horiz-adv-x="911" d="M928 561h-332v-332h-279v332h-331v279h331v331h279v-331h332v-279v0z" />
<glyph unicode="," horiz-adv-x="655" d="M627 285l-25 -158q-16 -111 -116.5 -186.5t-217.5 -126.5q-66 -27 -128 -47.5t-109 -34.5l155 553h71h149h152h69v0z" />
<glyph unicode="-" horiz-adv-x="518" d="M494 561h-471v279h471v-279v0z" />
<glyph unicode="." horiz-adv-x="669" d="M639 231l-272 -276q0 2 -52.5 33.5t-115.5 70.5q-61 39 -113.5 72t-54.5 35l274 309l334 -244v0z" />
<glyph unicode="/" horiz-adv-x="1097" d="M1047 1638l-814 -2048h-184l815 2048h183v0z" />
<glyph unicode="0" horiz-adv-x="1638" d="M1563 727q0 -301 -174.5 -514t-569.5 -213t-570 213t-175 514q0 299 175 512t570 213t569.5 -213t174.5 -512v0zM1077 762q0 109 -74.5 185.5t-181.5 76.5q-106 0 -182 -77t-76 -185q0 -109 76 -185.5t182 -76.5t181 76.5t75 185.5v0z" />
<glyph unicode="1" horiz-adv-x="1050" d="M1004 0h-570l-2 981l-379 57l-6 52q227 86 441 177t411 185l84 -29l21 -1423v0z" />
<glyph unicode="2" horiz-adv-x="1449" d="M1384 475l-233 -475h-1085l434 618q-199 51 -316.5 163t-117.5 249q0 10 1 19.5t1 19.5q2 8 4 18.5t4 18.5q53 195 207.5 271.5t330.5 86.5q18 2 36 2h36q246 0 370 -135t128 -295v-10v-8q0 -53 -13.5 -106.5t-40.5 -100.5l-241 -434q98 6 223 32.5t272 65.5v0zM764 954 q0 70 -50 119t-122 49t-122 -49t-50 -119t50 -118t122 -48t122 48.5t50 117.5v0z" />
<glyph unicode="3" horiz-adv-x="989" d="M944 1090q0 -51 -17.5 -103.5t-47.5 -103.5q-31 -53 -74 -104.5t-96 -104.5q94 -61 155.5 -140t61.5 -194v-18.5t-2 -20.5q-12 -117 -118 -187.5t-231 -115.5q-29 -12 -57.5 -21.5t-56.5 -19.5l-416 147q4 2 7 4.5t7 4.5q8 6 16.5 11t16.5 9q80 49 147.5 106.5 t67.5 137.5q-2 100 -78.5 162.5t-169.5 111.5v46.5v43.5q137 66 197.5 146t67.5 174q8 100 -56.5 157.5t-144.5 104.5q-2 0 -3 1l-1 1q-14 10 -29.5 18.5t-30.5 18.5l373 129q231 -78 370.5 -176t141.5 -225v0z" />
<glyph unicode="4" horiz-adv-x="1622" d="M1548 662l-6 -392l-192 6v-276h-500l16 262l-753 -10l-39 135l878 1065h428l-37 -788l205 -2v0zM897 1073q-102 -74 -188 -165t-160 -193l330 -25l18 383v0z" />
<glyph unicode="5" horiz-adv-x="1097" d="M1049 1452q-14 -152 -152.5 -232.5t-376.5 -103.5l-16 -215q219 -33 372.5 -125t159.5 -299q8 -250 -149.5 -356.5t-401.5 -120.5q-150 -8 -254 9.5t-182 70.5v15v16v13v15q141 27 264 87.5t150 203.5q2 10 3 20.5t1 18.5q-2 109 -109.5 181.5t-277.5 80.5q0 90 1 180 t3 181q2 90 3 180t1 180h961v0z" />
<glyph unicode="6" horiz-adv-x="1370" d="M1309 1315q-123 -88 -227.5 -179.5t-182.5 -187.5q180 -78 282.5 -200.5t102.5 -286.5q0 -33 -4 -64.5t-12 -66.5q-43 -172 -177.5 -265.5t-400.5 -91.5q-307 0 -472 168t-155 451q10 281 213 491.5t500 382.5q133 -39 266.5 -76.5t266.5 -74.5v0zM885 565 q0 94 -65.5 160t-155.5 66t-156 -66t-66 -160q0 -92 65.5 -157.5t156.5 -65.5q90 0 155.5 65.5t65.5 157.5v0z" />
<glyph unicode="7" horiz-adv-x="1331" d="M1270 1452q-55 -115 -103.5 -228.5t-89.5 -226.5q-90 -248 -148.5 -494.5t-90.5 -502.5h-639q80 244 190.5 505t253.5 542l-582 -95l9 500h1200v0z" />
<glyph unicode="8" horiz-adv-x="1288" d="M1231 418q0 -184 -172 -314.5t-414 -130.5t-414 130t-172 315q0 98 52.5 184t140.5 148q-72 59 -114 135t-42 164q0 178 165 305t396 127q233 0 398.5 -127t165.5 -305q0 -90 -46.5 -170t-123.5 -140q84 -61 132 -144t48 -177v0zM768 317q0 51 -37 86t-90 35 q-51 0 -88 -34.5t-37 -86.5q0 -51 37 -85.5t88 -34.5q53 0 90 34.5t37 85.5v0zM801 969q0 66 -49.5 111.5t-118.5 45.5q-70 0 -119 -46t-49 -111q0 -63 49 -110.5t119 -47.5t119 47t49 111v0z" />
<glyph unicode="9" horiz-adv-x="1370" d="M1309 846q-10 -279 -213 -491t-500 -382q-133 35 -267 73t-268 77q125 90 229.5 181t180.5 185q-178 78 -281.5 201t-101.5 285q0 31 4 64.5t12 66.5q41 172 175.5 267t400.5 93q307 0 473 -169t156 -451v0zM956 887q0 92 -64.5 157.5t-154.5 65.5q-92 0 -156.5 -65.5 t-64.5 -157.5q0 -94 64.5 -159.5t156.5 -65.5q90 0 154.5 65.5t64.5 159.5v0z" />
<glyph unicode=":" horiz-adv-x="669" d="M639 231l-272 -276q0 2 -52.5 33.5t-115.5 70.5q-61 39 -113.5 72t-54.5 35l274 309l334 -244v0zM639 805l-272 -277l-53 33q-52 33 -115 72q-61 39 -113.5 71.5t-54.5 34.5l274 310l334 -244v0z" />
<glyph unicode=";" horiz-adv-x="655" d="M627 285l-25 -158q-16 -111 -116.5 -186.5t-217.5 -126.5q-66 -27 -128 -47.5t-109 -34.5l155 553h71h149h152h69v0zM639 805l-272 -277l-53 33q-52 33 -115 72q-61 39 -113.5 71.5t-54.5 34.5l274 310l334 -244v0z" />
<glyph unicode="&#x3c;" horiz-adv-x="911" d="M895 350l-125 -217l-735 424v164l735 424l125 -217l-78 -45t-172 -99q-92 -53 -170 -98t-80 -47l500 -289v0z" />
<glyph unicode="=" horiz-adv-x="911" d="M928 356h-942v279h942v-279v0zM928 725h-942v279h942v-279v0z" />
<glyph unicode="&#x3e;" horiz-adv-x="911" d="M883 557l-736 -424l-124 217l499 289q-2 2 -79.5 47t-170.5 98q-94 53 -172 98l-77 46l124 217l736 -424v-164v0z" />
<glyph unicode="?" horiz-adv-x="776" d="M741 549q-10 -6 -20 -12.5t-21 -12.5q-47 -29 -96 -54.5t-100 -35.5q-6 -2 -11.5 -3t-9.5 -1q-4 -2 -9 -3t-11 -1l268 -195l-270 -276q0 2 -53.5 33.5t-116.5 70.5q-61 39 -113.5 72t-54.5 35l223 250q-92 0 -163.5 31.5t-112.5 101.5q-18 31 -26.5 61.5t-8.5 61.5 q0 51 21.5 101t54.5 99q27 39 40 75t13 69q0 14 -3 27.5t-7 27.5q-14 41 -39 83t-58 83l392 215q66 -33 125 -69.5t98 -94.5q23 -31 38 -63.5t15 -73.5q0 -27 -8 -57.5t-29 -67.5q-8 -14 -14 -30.5t-12 -32.5q0 -2 -1.5 -4.5t-3.5 -6.5q-2 -8 -6 -17t-8 -20 q-12 -29 -19.5 -60.5t-7.5 -63.5q0 -12 2.5 -24.5t4.5 -25.5q4 -14 8 -26.5t10 -24.5q14 -25 30.5 -48.5t35.5 -45.5q2 -4 4 -7t4 -5q6 -8 13 -17.5t13 -17.5v0z" />
<glyph unicode="@" horiz-adv-x="1024" />
<glyph unicode="A" horiz-adv-x="1818" d="M1810 0h-583l-94 231h-484l-84 -231h-542l573 1452h528l686 -1452v0zM971 623l-97 229l-83 -229h180v0z" />
<glyph unicode="B" horiz-adv-x="1417" d="M1380 356q-4 -18 -12 -37.5t-18 -39.5q-41 -76 -119 -144.5t-162 -103.5q-33 -14 -65.5 -22.5t-63.5 -8.5h-239.5h-217.5h-216.5h-239.5q16 365 16 727.5t-16 724.5h868q16 0 33.5 -3t36.5 -9q68 -23 134 -80t118 -123q51 -63 83.5 -119.5t34.5 -81.5q4 -43 -38 -103.5 t-91 -123.5q-23 -29 -44 -57.5t-40 -55.5q18 -16 38 -34.5t38 -36.5q16 -14 33.5 -30.5t34.5 -31.5q47 -49 81.5 -97t34.5 -91v-9.5t-2 -9.5v0zM797 410q0 51 -58.5 82.5t-138.5 52.5q0 -41 2 -83t4 -83q2 -33 4 -65.5t2 -65.5q82 16 134.5 46t50.5 116v0zM786 963 q-6 66 -63 95t-129 46q-2 -72 -3 -144.5t-1 -144.5q78 10 137 38t59 95v4v4v2v5v0z" />
<glyph unicode="C" horiz-adv-x="1132" d="M1116 424l-207 -455q-367 59 -611.5 274.5t-244.5 493.5q0 270 229.5 480t575.5 280l254 -422q-168 -35 -275.5 -124t-107.5 -201q0 -113 109.5 -202t277.5 -124v0z" />
<glyph unicode="D" horiz-adv-x="1478" d="M1319 1169q72 -96 109.5 -207.5t44.5 -226.5v-16v-17q0 -211 -113 -396t-338 -269q-92 -35 -195.5 -37t-220.5 0h-62.5h-64.5h-218h-218q14 365 14 727.5t-14 724.5h590q225 -2 400 -68.5t286 -214.5v0zM940 702q-63 133 -146 184.5t-173 57.5q-2 -119 -2.5 -238.5 t2.5 -240.5q109 10 188.5 70.5t130.5 166.5v0z" />
<glyph unicode="E" horiz-adv-x="1214" d="M1122 1065q-125 20 -253 23.5t-257 -7.5q-2 -41 -2 -84v-86q127 -8 253 -5t251 24l-86 -387h-420q0 -20 1 -42t1 -44q0 -20 1 -42t1 -44q127 -8 253 -5t251 23l-86 -389h-253h-253h-253h-253q8 182 11.5 363.5t3.5 363.5q0 180 -4 362.5t-11 362.5h254h256h254h254 l86 -387v0z" />
<glyph unicode="F" horiz-adv-x="1292" d="M1198 1030q-92 18 -197.5 29.5t-212.5 15.5q-43 2 -86 2h-86q0 -25 -1 -48t-1 -46q-2 -23 -2 -46.5v-47.5h469l66 -463q-92 18 -196.5 30.5t-211.5 18.5q-31 0 -62.5 1t-62.5 1q0 -59 2 -118.5t2 -118.5q2 -61 4.5 -121t4.5 -119h-604q6 182 10 363.5t4 363.5 q0 180 -4 362.5t-10 362.5h1110l65 -422v0z" />
<glyph unicode="G" horiz-adv-x="1617" d="M1491 0h-754q-76 0 -132 7t-107 34q-20 10 -41 23.5t-41 31.5q-27 20 -54.5 44t-56.5 50q-109 100 -198 228.5t-87 267.5q0 43 11.5 86t34.5 86q133 240 356 402.5t571 261.5l267 -392q-174 -68 -336 -148.5t-281 -205.5q-16 -16 -23.5 -32.5t-7.5 -32.5q0 -20 11.5 -41 t27.5 -41q82 -94 154 -125t129 -27l4 426l547 -153q-14 -90 -20.5 -178.5t-6.5 -174.5q0 -100 9.5 -199.5t23.5 -197.5v0z" />
<glyph unicode="H" horiz-adv-x="1619" d="M1503 0h-604q4 119 7 236.5t5 236.5h-288q2 -119 5 -236.5t7 -236.5h-604q8 182 11 363.5t3 363.5q0 180 -4 362.5t-10 362.5h604q-4 -115 -7 -231.5t-5 -233.5h288q-2 117 -5 233.5t-7 231.5h604q-6 -180 -10 -362.5t-4 -362.5q0 -182 3 -363.5t11 -363.5v0z" />
<glyph unicode="I" horiz-adv-x="665" d="M635 0h-604q6 182 10 363.5t4 363.5q0 180 -4 362.5t-10 362.5h604q-6 -180 -10 -362.5t-4 -362.5q0 -182 3 -363.5t11 -363.5v0z" />
<glyph unicode="J" horiz-adv-x="1202" d="M1102 1452q0 -20 -1 -41.5t-1 -44.5q-6 -256 -9.5 -509t7.5 -499q-57 -119 -131 -210t-174 -148h-45.5h-45.5h-113.5h-111.5q-78 2 -156.5 5t-158.5 11l-152 549q88 -33 186.5 -48t211.5 -13q66 4 102.5 57t30.5 160q-6 117 -17.5 232.5t-21.5 232.5q-6 68 -12.5 134 t-12.5 132h625v0z" />
<glyph unicode="K" horiz-adv-x="1689" d="M1544 117l-598 -117l-346 489q0 -61 2 -122.5t2 -120.5q2 -61 5 -123t5 -123h-606q14 182 21.5 363.5t7.5 363.5q0 180 -7 362.5t-22 362.5h606q-6 -150 -9 -301.5t-5 -302.5l260 604l598 -117l-364 -628l450 -590v0z" />
<glyph unicode="L" horiz-adv-x="1249" d="M1147 559l-100 -559h-1035q14 182 20.5 363.5t6.5 363.5q0 180 -7 362.5t-20 362.5h619q-10 -274 -15.5 -450.5t-3.5 -335.5q0 -37 1 -76t1 -78q131 -2 246 7t227 30q14 2 30 5t30 5v0z" />
<glyph unicode="M" horiz-adv-x="2066" d="M2048 0h-612l-105 502l-327 -502l-324 520l-133 -520h-549l358 1452h412l289 -651q90 147 175 310t165 341h397q31 -377 92.5 -740.5t161.5 -711.5v0z" />
<glyph unicode="N" horiz-adv-x="1701" d="M1614 0h-400l-649 668v-102.5t-2 -102.5v-64.5v-64.5q-2 -84 -1 -167t5 -167h-555q23 176 34 356.5t11 360.5q0 182 -11 365.5t-34 369.5h416l604 -541q-6 135 -12 270.5t-12 270.5h606q-31 -358 -23 -721.5t23 -730.5v0z" />
<glyph unicode="O" horiz-adv-x="1611" d="M1593 727q0 -332 -215 -529.5t-571 -197.5t-572.5 197.5t-216.5 529.5q0 330 216.5 527.5t572.5 197.5t571 -197.5t215 -527.5v0zM1040 741q0 96 -68.5 165t-164.5 69t-165 -68.5t-69 -165.5q0 -96 69 -164.5t165 -68.5t164.5 68.5t68.5 164.5v0z" />
<glyph unicode="P" horiz-adv-x="1476" d="M1317 1087q23 -39 32 -82.5t9 -91.5q0 -29 -3 -57.5t-9 -56.5q-23 -102 -72 -199.5t-105 -165.5q-2 0 -3 -2t-3 -4q-35 -39 -85 -64.5t-117 -29.5q-100 -8 -189.5 -5t-171.5 11q4 -86 8 -171t13 -169h-605q31 360 32 722.5t-32 729.5h605q147 -2 245.5 -12t149.5 -45 q100 -70 178 -145.5t123 -162.5v0zM864 883q10 16 13.5 30.5t3.5 28.5q0 25 -11.5 46.5t-29.5 35.5q-55 53 -114.5 89t-123.5 63q-6 -131 -9 -263.5t-1 -263.5q90 27 158.5 85.5t113.5 148.5v0z" />
<glyph unicode="Q" d="M1579 727q0 -182 -67.5 -325.5t-190.5 -239.5l201 -146l-330 -288l-201 290q-45 -8 -95 -13t-103 -5q-356 0 -572.5 197.5t-216.5 529.5q0 330 216 527.5t573 197.5q356 0 571 -197.5t215 -527.5v0zM1026 741q0 96 -68.5 165t-164.5 69t-165 -68.5t-69 -165.5 q0 -96 68.5 -164.5t165.5 -68.5q96 0 164.5 68.5t68.5 164.5v0z" />
<glyph unicode="R" horiz-adv-x="1628" d="M1464 45l-510 -74q-74 80 -140 168t-130 176q-18 25 -34.5 48.5t-33.5 48.5q-12 16 -24 33.5t-25 33.5q0 -43 -3 -97t-5 -110q-2 -18 -3 -35.5t-1 -35.5q-4 -63 -7 -116.5t-5 -84.5h-531q10 115 15.5 240t5.5 256q0 59 -1 119.5t-3 119.5q-6 188 -17.5 371.5t-25.5 345.5 h600q41 0 84 -1t88 -3q115 -4 215 -14.5t135 -32.5q96 -63 169 -131t118 -146q10 -18 17 -35.5t11 -33.5t6.5 -33.5t2.5 -36.5q0 -100 -57.5 -192.5t-127.5 -169.5q-20 -23 -45.5 -40.5t-56.5 -29.5q25 -61 62.5 -143t92.5 -166q35 -51 76 -101.5t88 -97.5v0zM817 866 q8 16 12.5 26.5t4.5 18.5t-3.5 14.5t-9.5 12.5q-4 6 -11 12t-15 15q-43 39 -90.5 61.5t-94.5 42.5l-20 8t-21 8q-2 -59 -5 -111t-3 -102q-2 -51 -2 -103v-112q84 23 149.5 76t108.5 133v0z" />
<glyph unicode="S" horiz-adv-x="1034" d="M897 238q-59 -113 -169 -183.5t-243 -117.5l-483 264q139 39 210 104.5t69 153.5q0 39 -12.5 82t-41.5 88q-16 29 -37.5 55.5t-42.5 52.5l-1 1l-1 1q-25 29 -47 59.5t-41 63.5q-23 43 -33 83t-10 79q0 74 35 140.5t88 123.5q59 66 145.5 112t196.5 83l410 -248 q-63 -39 -112.5 -84t-76.5 -100q-4 -8 -7 -15.5t-5 -15.5q-4 -16 -6 -31.5t-2 -30.5q0 -39 14.5 -74.5t40.5 -64.5q78 -84 129 -166t70 -161q4 -20 6 -41t2 -41q0 -43 -11 -86t-34 -86v0z" />
<glyph unicode="T" horiz-adv-x="1452" d="M1319 1452l-107 -500q-35 0 -70.5 4.5t-72.5 10.5h-3h-3l-74 8t-74 4q-2 -141 -2 -288.5t5 -297.5q2 -98 4 -197.5t6 -195.5h-584q4 98 7 198.5t3 202.5q4 145 4 290t-2 284h-11h-11q-84 -2 -168 -6t-166 -27l41 510h1278v0z" />
<glyph unicode="U" horiz-adv-x="1660" d="M1528 0h-539q-6 49 -12 99.5t-12 101.5q-8 -12 -17.5 -24.5t-19.5 -24.5q-10 -16 -21.5 -32t-23.5 -30q-20 -29 -41 -54.5t-41 -47.5q-211 -2 -406.5 41t-378.5 125q39 201 54.5 382t15.5 347q0 152 -11.5 292t-27.5 277h148.5h148.5h148.5h148.5v-13v-14 q-4 -238 -15.5 -468t-66.5 -422q57 -53 136 -86t179 -33q16 0 35 1t37 3q-12 166 -16 339t-2 347q2 86 6 173t8 173h586q-6 -180 -10.5 -362.5t-4.5 -362.5q0 -182 3.5 -363.5t11.5 -363.5v0z" />
<glyph unicode="V" horiz-adv-x="1859" d="M1694 1321q-143 -330 -262 -660.5t-215 -660.5h-298.5h-300.5q-139 317 -291.5 633.5t-324.5 632.5l561 186q84 -176 166 -353t164 -356q59 195 116.5 387.5t114.5 385.5q72 -25 142.5 -48.5t142.5 -48.5t142.5 -49t142.5 -49v0z" />
<glyph unicode="W" horiz-adv-x="2516" d="M2290 1366l-406 -1366h-383l-325 590l-308 -590h-432q-94 324 -200.5 649.5t-233.5 655.5l580 147l176 -647l418 647l389 -584l188 584l537 -86v0z" />
<glyph unicode="X" horiz-adv-x="1736" d="M1567 119l-613 -119l-176 236l-176 -236l-612 119q121 141 235.5 281.5t223.5 277.5l-445 596l545 178q53 -82 110.5 -167t118.5 -171q61 86 118.5 171t111.5 167l544 -178l-444 -596q109 -137 224.5 -277.5t234.5 -281.5v0z" />
<glyph unicode="Y" horiz-adv-x="1533" d="M1397 1452l-572 -1452h-596l213 483l-440 969h551l178 -438l166 438h500v0z" />
<glyph unicode="Z" horiz-adv-x="1626" d="M1501 1452l-563 -934l522 27l-139 -545h-1298l550 950l-550 -47l145 549h1333v0z" />
<glyph unicode="[" horiz-adv-x="653" d="M625 -410h-594v513v511v512v512h594v-151h-209v-1745h209v-152v0z" />
<glyph unicode="\" horiz-adv-x="1097" d="M1036 -410h-184l-813 2048h182l815 -2048v0z" />
<glyph unicode="]" horiz-adv-x="653" d="M653 -410h-594v152h209v1745h-209v151h594v-512v-512v-511v-511v-2z" />
<glyph unicode="^" horiz-adv-x="1054" d="M1038 860l-217 -125l-289 500q-2 -2 -47 -80t-96 -170q-55 -92 -100 -171l-45 -79l-217 125l424 735h163l424 -735v0z" />
<glyph unicode="_" horiz-adv-x="952" d="M995 -401h-1024v196h1024v-196v0z" />
<glyph unicode="`" horiz-adv-x="677" d="M645 1352l-242 -49q-115 47 -214 123.5t-183 183.5l313 114l326 -372v0z" />
<glyph unicode="a" d="M1593 0h-514l-82 203h-426l-73 -203h-478l504 1278h465l604 -1278v0zM854 549l-84 201l-74 -201h158v0z" />
<glyph unicode="b" horiz-adv-x="1312" d="M1214 313q-4 -16 -10 -32.5t-14 -32.5q-37 -68 -105.5 -129.5t-144.5 -91.5q-29 -12 -57.5 -19.5t-55.5 -7.5h-210h-191h-193.5h-209.5q10 213 13 426t-1 426q-2 106 -5 212.5t-7 213.5h765q14 0 30 -3t30 -7q61 -20 119.5 -71.5t103.5 -106.5q45 -57 74 -107.5t31 -71.5 q2 -37 -33 -89t-78 -107q-2 0 -3 -2l-1 -2q-20 -27 -38.5 -51.5t-35.5 -47.5q16 -14 32.5 -29.5t33.5 -31.5q18 -16 35.5 -32.5t33.5 -33.5q39 -41 67 -79.5t28 -75.5v-4v-4t-1.5 -4.5t-1.5 -4.5v0zM700 360q0 45 -50 74t-122 45q0 -33 1 -65.5t3 -65.5v-9t3 -9 q0 -29 2 -56.5t2 -56.5q72 16 117.5 42t43.5 101v0zM692 848q-6 57 -56 82.5t-114 40.5q-2 -63 -3 -126t-1 -128q70 10 123 34.5t51 86.5v3v3v1v3v0z" />
<glyph unicode="c" horiz-adv-x="1028" d="M983 373l-182 -400q-324 53 -539 241.5t-215 434.5q0 238 202 423t507 245l223 -371q-147 -31 -242.5 -109.5t-95.5 -177.5q0 -100 96.5 -178t245.5 -108v0z" />
<glyph unicode="d" horiz-adv-x="1386" d="M1161 1028q63 -84 97 -182t38 -201v-13v-16q0 -184 -99 -348t-298 -235q-80 -31 -171 -33t-193 0h-55.5h-57.5h-97.5h-95.5h-95h-97q8 213 11 426t-1 426q0 106 -3 212.5t-7 213.5h520q197 -2 351.5 -60.5t252.5 -189.5v0zM827 618q-57 117 -128.5 162t-151.5 51 q-2 -106 -2 -211.5t2 -209.5q96 10 165.5 62t114.5 146v0z" />
<glyph unicode="e" horiz-adv-x="1069" d="M987 938q-111 16 -222.5 19.5t-225.5 -5.5q0 -18 -1 -36.5t-1 -36.5v-39v-37q113 -8 223 -5t221 21l-76 -342h-370q0 -18 1 -36.5t1 -39.5q0 -18 1 -37.5t1 -37.5q113 -8 223 -4t221 20l-76 -342h-298h-296h-148.5h-148.5q14 319 13.5 638.5t-13.5 639.5h224.5h224.5 h222.5h223.5l76 -340v0z" />
<glyph unicode="f" horiz-adv-x="1136" d="M1055 907q-78 14 -168 24.5t-182 14.5q-41 2 -82 2h-80q-2 -41 -3 -83t-1 -83h413l58 -407q-78 16 -167 26.5t-181 16.5q-31 0 -61 1t-60 1q0 -53 1 -105.5t3 -103.5q2 -53 3 -105.5t3 -105.5h-531q12 319 12.5 638.5t-12.5 639.5h977l58 -371v0z" />
<glyph unicode="g" horiz-adv-x="1423" d="M1358 0h-664q-68 0 -116 6t-95 29q-16 10 -34.5 21.5t-36.5 27.5q-23 18 -48.5 39.5t-50.5 46.5q-94 86 -173 198.5t-77 235.5q0 37 9.5 75t29.5 77q119 211 314.5 354t503.5 229l233 -344q-154 -59 -296 -130.5t-247 -180.5q-14 -14 -21 -29.5t-5 -29.5q0 -8 3 -17.5 t7 -17.5q4 -10 10 -18.5t14 -18.5q66 -76 125.5 -105.5t106.5 -27.5h9h7l4 375l482 -136q-12 -78 -18.5 -154.5t-6.5 -152.5q0 -88 8 -176t23 -176v0z" />
<glyph unicode="h" horiz-adv-x="1425" d="M1323 0h-532q4 104 7 208.5t5 207.5h-254q0 -102 3 -207t7 -209h-532q14 319 13 638.5t-13 639.5h532q-4 -100 -7 -203.5t-3 -206.5h254q-2 102 -5 206t-7 204h532q-12 -319 -13 -639t13 -639v0z" />
<glyph unicode="i" horiz-adv-x="585" d="M559 0h-532q12 319 12 638.5t-12 639.5h532q-12 -319 -13 -639t13 -639v0z" />
<glyph unicode="j" horiz-adv-x="1058" d="M1010 1278q-6 -244 -9.5 -486.5t5.5 -476.5q-51 -104 -116 -184t-153 -131h-41.5h-44.5h-95h-95q-70 2 -139.5 5t-139.5 9l-133 484q78 -29 164 -43.5t184 -12.5q59 4 91 51.5t28 141.5q-6 102 -15 203.5t-20 205.5q-6 57 -12 116t-10 118h551v0z" />
<glyph unicode="k" horiz-adv-x="1486" d="M1419 102l-526 -102l-305 430q2 -106 5 -213.5t7 -216.5h-532q23 319 22.5 638.5t-22.5 639.5h532q-4 -131 -7 -265t-5 -268l229 533l526 -102l-321 -553l397 -521v0z" />
<glyph unicode="l" horiz-adv-x="1099" d="M1049 492l-88 -492h-910q25 319 24 638.5t-24 639.5h543q-10 -242 -13 -397.5t-3 -292.5q0 -35 1 -69t1 -68q115 -2 215 6t198 24q14 2 27.5 5t28.5 6v0z" />
<glyph unicode="m" horiz-adv-x="1984" d="M1894 0h-538l-92 442l-289 -442l-285 459l-117 -459h-483l316 1278h362l254 -573q80 131 154.5 274t144.5 299h350q27 -332 81 -652.5t142 -625.5v0z" />
<glyph unicode="n" horiz-adv-x="1550" d="M1479 0h-351l-571 588v-90t-2 -90v-57.5v-55.5q-2 -74 -1 -147.5t5 -147.5h-489q20 156 30.5 312.5t10.5 314.5q-2 162 -11.5 324.5t-29.5 326.5h366l533 -475q-2 59 -5 118.5t-6 118.5q-4 59 -6 119t-6 119h533q-23 -262 -21 -529.5t12 -533.5q2 -43 3.5 -84t3.5 -84 q0 -12 1 -23.5t1 -23.5v0z" />
<glyph unicode="o" horiz-adv-x="1523" d="M1454 639q0 -291 -189.5 -465t-502.5 -174t-503.5 174t-190.5 465q0 293 190.5 466t503.5 173t502.5 -173t189.5 -466v0zM969 653q0 84 -60.5 144.5t-146.5 60.5q-84 0 -144.5 -60.5t-60.5 -144.5q0 -86 60.5 -146.5t144.5 -60.5q86 0 146.5 60.5t60.5 146.5v0z" />
<glyph unicode="p" horiz-adv-x="1298" d="M1204 956q18 -33 26.5 -71.5t8.5 -79.5q0 -25 -3 -50.5t-9 -52.5q-18 -90 -61.5 -175t-90.5 -144q-2 0 -3 -2t-3 -4q-31 -35 -75 -57.5t-103 -26.5q-88 -6 -167 -4t-151 10q4 -76 7.5 -150.5t11.5 -148.5h-533q14 164 21.5 328t7.5 329q0 154 -7 309.5t-22 311.5h533 q129 -2 215 -10t131 -41q90 -61 157.5 -127t108.5 -144v0zM805 776q8 16 11 29.5t3 25.5q0 23 -9 39.5t-26 30.5q-49 47 -101 78t-108 55q-6 -117 -9 -232.5t-1 -230.5q78 23 139.5 74t100.5 131v0z" />
<glyph unicode="q" horiz-adv-x="1523" d="M1454 639q0 -160 -59.5 -286t-167.5 -210l178 -129l-291 -254l-176 256q-41 -8 -85 -12t-91 -4q-313 0 -503.5 174t-190.5 465q0 293 190.5 466t503.5 173t502.5 -173t189.5 -466v0zM969 653q0 84 -60.5 144.5t-146.5 60.5q-84 0 -144.5 -60.5t-60.5 -144.5 q0 -86 60.5 -146.5t144.5 -60.5q86 0 146.5 60.5t60.5 146.5v0z" />
<glyph unicode="r" horiz-adv-x="1433" d="M1317 39l-449 -64q-66 72 -125 149t-114 157q-14 18 -28.5 37.5t-27.5 37.5q-12 16 -23 33t-24 33q0 -37 -2 -85t-4 -97q-2 -20 -3 -41t-1 -39q-4 -51 -6 -93t-4 -67h-467q10 100 14 209.5t4 224.5q0 55 -1 111.5t-3 111.5q-6 162 -16 321t-23 300h529q35 0 73.5 -1 t79.5 -3q100 -2 188.5 -11.5t119.5 -29.5q84 -57 148.5 -116.5t102.5 -127.5q18 -31 25.5 -61.5t7.5 -61.5q0 -86 -49 -165.5t-106 -145.5q-2 -2 -3.5 -3t-3.5 -3q-18 -20 -40.5 -35.5t-49.5 -26.5q20 -55 55 -127.5t85 -146.5q29 -45 64.5 -89t76.5 -85v0zM748 762 q8 14 11 23.5t3 17.5t-4 14l-8 12q-4 4 -10.5 8.5t-12.5 10.5q-37 35 -78 54.5t-84 37.5q-8 2 -17 6t-20 8q-2 -49 -4 -94t-2 -88q-2 -47 -2 -94v-100q74 23 131.5 68.5t96.5 115.5v0z" />
<glyph unicode="s" horiz-adv-x="909" d="M829 209q-53 -100 -149 -161.5t-213 -102.5l-426 231q121 35 183.5 91.5t62.5 133.5q0 35 -11.5 73t-35.5 79q-14 25 -33 48.5t-37 45.5q-2 2 -3 4t-3 4q-20 25 -40 50.5t-34 52.5q-20 39 -29.5 74.5t-9.5 68.5q2 66 33 124t76 110q53 55 129 96t172 74l360 -218 q-57 -33 -100 -73.5t-66 -89.5q-8 -20 -12 -40t-4 -40q0 -35 12.5 -65.5t34.5 -57.5q86 -92 134 -181t48 -180q0 -37 -9 -74.5t-30 -76.5v0z" />
<glyph unicode="t" horiz-adv-x="1277" d="M1221 1278l-95 -440q-31 0 -62.5 4t-62.5 8q-35 4 -68.5 8t-68.5 4v-250t2 -256q2 -90 4 -179t7 -177h-515q4 90 6.5 181t4.5 181q2 127 2 251t-2 245h-11.5h-11.5q-72 -2 -145.5 -6t-147.5 -23l39 449h1125v0z" />
<glyph unicode="u" horiz-adv-x="1462" d="M1397 0h-473q-2 23 -5.5 44.5t-5.5 43.5q-4 20 -6 43t-6 45q-10 -14 -21.5 -28.5t-21.5 -28.5q-27 -35 -51.5 -69t-48.5 -60q-186 -2 -359.5 34.5t-330.5 110.5q35 176 48 335t13 304q0 133 -9 259t-26 245h261h261v-13.5v-13.5q-4 -209 -14 -410.5t-57 -369.5 q51 -47 121.5 -76.5t158.5 -29.5h15.5t15.5 2q6 0 13.5 1t15.5 1q-10 147 -13.5 298.5t-1.5 305.5q0 76 3.5 152.5t7.5 152.5h516q-12 -319 -13.5 -639t13.5 -639v0z" />
<glyph unicode="v" horiz-adv-x="1636" d="M1489 1163q-125 -291 -230.5 -581.5t-189.5 -581.5h-262h-264q-61 139 -125 278.5t-131 278.5q-68 139 -139.5 278.5t-147.5 278.5l494 164q74 -156 146.5 -311.5t143.5 -313.5q16 57 34 113.5t34 114.5q35 113 68.5 226.5t66.5 225.5q63 -20 126 -41.5t126 -42.5 q61 -23 123.5 -43t126.5 -43v0z" />
<glyph unicode="w" horiz-adv-x="2215" d="M2015 1202l-356 -1202h-338l-285 518l-270 -518h-381q-84 285 -178 571.5t-205 577.5l510 129l156 -569l368 569l342 -514l166 514l471 -76v0z" />
<glyph unicode="x" horiz-adv-x="1527" d="M1384 104l-538 -104l-156 207l-155 -207l-539 104q106 125 207.5 248t195.5 244l-391 524l481 158q45 -74 96.5 -147.5t104.5 -149.5q53 76 104.5 149.5t98.5 147.5l479 -158l-391 -524q94 -121 195.5 -244t207.5 -248v0z" />
<glyph unicode="y" horiz-adv-x="1349" d="M1229 1278l-502 -1278h-524l186 426l-387 852h485l156 -385l145 385h441v0z" />
<glyph unicode="z" horiz-adv-x="1431" d="M1307 1278l-496 -821l459 22l-121 -479h-1143l483 836l-483 -41l127 483h1174v0z" />
<glyph unicode="{" horiz-adv-x="690" d="M657 -410h-335q-55 2 -94.5 41t-39.5 95v364v367q0 53 -35.5 91t-86.5 40h-35v35h35q51 4 86.5 41.5t35.5 91.5v375.5v373.5q0 55 39 94t95 39h335v-34h-24q-53 0 -92 -39t-39 -92v-376v-376q0 -37 -19.5 -67.5t-48.5 -47.5q29 -16 48.5 -48t19.5 -69v-364v-367 q0 -53 39 -92t92 -39l24 -2v-35v0z" />
<glyph unicode="|" horiz-adv-x="337" d="M313 -410h-278v2048h278v-2048v0z" />
<glyph unicode="}" horiz-adv-x="690" d="M662 588h-35q-51 -2 -87 -40t-36 -91v-366.5v-364.5q0 -55 -39 -94.5t-94 -39.5l-336 -2v35h24q53 2 92 41t39 92v366.5v364.5q0 37 19.5 69t48.5 48q-29 16 -48.5 47t-19.5 68v375.5v376.5q0 53 -38.5 92t-92.5 39h-24v34h336q55 0 94 -38.5t39 -94.5v-373.5v-375.5 q0 -53 35.5 -91t87.5 -42h35v-35v0z" />
<glyph unicode="~" horiz-adv-x="1083" d="M1034 672l-160 -154q-4 6 -8 12.5t-10 12.5q-25 35 -64.5 62.5t-89.5 27.5q-10 0 -21 -1t-22 -5q-29 -10 -55 -20.5t-49 -22.5q-47 -23 -88 -42.5t-80 -25.5q-12 -2 -23.5 -2h-21.5q-111 8 -178.5 59.5t-114.5 139.5l141 133q8 -6 15.5 -11.5t15.5 -11.5 q18 -14 36.5 -26.5t39.5 -22.5q12 -6 26.5 -9t26.5 -3h7h8q2 0 6 1t6 3q121 47 205 83t147 36h12.5t12.5 -2q129 -18 185 -79t95 -132v0z" />
<glyph unicode="&#xa1;" horiz-adv-x="669" d="M639 -256l-549 -127l-4 782l428 164l125 -819v0zM645 903l-274 -309l-334 244l272 276l53 -32q52 -33 115 -72q61 -39 113.5 -72t54.5 -35v0z" />
<glyph unicode="&#xa2;" horiz-adv-x="915" d="M874 483l-161 -358q-29 6 -57.5 12t-57.5 15v-152h-287v281q-125 84 -197.5 200.5t-72.5 247.5q0 133 72.5 249t197.5 200v274h287v-145q18 4 36.5 9t39.5 9l196 -332q-131 -27 -215 -96.5t-84 -159.5q0 -88 86 -157.5t217 -96.5v0z" />
<glyph unicode="&#xa3;" horiz-adv-x="808" d="M737 348q-33 -66 -89 -113t-128 -81v-154h-287v211l-196 108q109 29 164 81.5t55 121.5q-2 31 -11 63.5t-32 69.5q-14 25 -31.5 47.5t-34.5 45.5q-18 20 -35.5 42.5t-31.5 47.5q-18 35 -26.5 66.5t-8.5 60.5q2 59 29.5 110t68.5 96q18 23 41 41.5t49 32.5v207h287v-192 l213 -130q-51 -31 -90 -66.5t-57 -78.5q-2 -6 -5 -12l-6 -12q-4 -12 -5 -24.5t-1 -25.5q0 -31 11.5 -57.5t31.5 -48.5q76 -82 118 -162t42 -158q0 -33 -8 -67.5t-27 -69.5v0z" />
<glyph unicode="&#xa4;" horiz-adv-x="1419" d="M1356 199q-25 -27 -50.5 -49.5t-54.5 -45.5q-55 -41 -113.5 -67.5t-117.5 -38.5q-35 -8 -70 -12t-69 -4q-223 0 -407.5 146t-246.5 364h-164l111 147h27q-2 16 -2 33.5v34.5h-136l111 147h39q45 215 218 383t433 166q145 0 271.5 -60.5t214.5 -160.5l-254 -185 q-51 59 -110.5 85t-119.5 26q-102 0 -191 -70.5t-126 -183.5h688l-109 -147h-604q0 -16 1 -34t3 -34h709l-109 -147h-557q47 -100 131 -156.5t177 -56.5h13t13 2q51 4 101.5 29.5t93.5 72.5l256 -184v0z" />
<glyph unicode="&#xa5;" horiz-adv-x="1533" d="M1464 1452l-282 -715h223l-64 -125h-206l-39 -96h309l-64 -125h-247l32 -391h-655l31 391h-373l64 125h301l-43 96h-322l64 125h202l-325 715h551l178 -438l166 438h499v0z" />
<glyph unicode="&#xa6;" horiz-adv-x="337" d="M309 -365h-278v943h278v-943v0zM309 659h-278v943h278v-943v0z" />
<glyph unicode="&#xa7;" horiz-adv-x="1140" d="M1145 584q0 -113 -56.5 -196t-164.5 -128q31 -31 54 -62.5t40 -62.5q25 -41 36 -82t11 -82q0 -188 -135 -295.5t-393 -107.5q-205 0 -322 73.5t-117 182.5q0 66 52.5 118t125.5 52q59 0 94.5 -30t61.5 -89q4 -8 7 -17.5t7 -17.5q16 -41 43 -68.5t107 -27.5q74 0 116 36 t42 95q0 66 -43 102.5t-119 69.5q-27 10 -55.5 20.5t-59.5 22.5q-37 12 -69.5 25.5t-63.5 25.5q-176 74 -265 161t-89 245q0 121 59.5 217t173.5 154q-72 53 -107.5 112.5t-35.5 126.5q0 152 135 256.5t373 104.5q213 0 323.5 -66t110.5 -170q0 -63 -42 -105t-99 -42 q-61 0 -96 27.5t-62 84.5q-27 59 -64.5 86t-105.5 27t-105.5 -32t-37.5 -85q0 -43 26.5 -73.5t77.5 -59.5q33 -16 74 -33.5t90 -38.5q31 -12 59.5 -23t55.5 -22q74 -27 136 -58.5t111 -80.5q51 -51 78 -119.5t27 -150.5v0zM852 496q0 39 -20.5 67.5t-61.5 54.5 q-10 8 -23.5 15.5t-27.5 15.5q-121 66 -214 92.5t-122 26.5q-53 0 -90 -34t-37 -81q0 -37 21.5 -65.5t62.5 -55.5q8 -4 16.5 -9t18.5 -11q121 -63 209 -94t135 -31q61 0 97 31t36 78v0z" />
<glyph unicode="&#xa8;" horiz-adv-x="1067" d="M524 1487l-229 -230l-232 230l232 231l229 -231v0zM1018 1487l-232 -230l-229 230l229 231l232 -231v0z" />
<glyph unicode="&#xa9;" horiz-adv-x="1583" d="M1548 678q0 -150 -57 -288t-166 -249q-106 -106 -243.5 -162.5t-290.5 -56.5q-154 0 -289 55.5t-246 163.5q-109 109 -166 246t-57 291q0 152 57 290t164 246q106 109 246.5 166.5t292.5 57.5q147 0 286.5 -57.5t245.5 -163.5q106 -104 164.5 -246t58.5 -293v0zM1423 678 q0 127 -48 244.5t-138 205.5q-88 88 -206 136.5t-240 48.5q-127 0 -244 -48t-207 -139q-90 -92 -137 -206.5t-47 -241.5q0 -129 48 -244t138 -205q92 -90 206 -137t243 -47t242.5 48t201.5 136q90 92 139 209t49 240v0zM1155 453q-68 -113 -158 -167.5t-209 -54.5 q-193 0 -319.5 126t-126.5 315q0 190 128 315t321 125q55 0 94 -10t67 -23q27 -12 45.5 -22t30.5 -10q23 0 33 14t18 47h54l6 -336h-58q-33 133 -100.5 201.5t-161.5 68.5q-102 0 -155.5 -90t-53.5 -268q0 -182 59.5 -277.5t168.5 -95.5q72 0 138 44t124 132l55 -34v0z" />
<glyph unicode="&#xaa;" horiz-adv-x="741" d="M721 987h-234l-38 94h-193l-33 -94h-217l230 582h210l275 -582v0zM385 1237l-39 92l-33 -92h72v0z" />
<glyph unicode="&#xab;" horiz-adv-x="835" d="M430 934l-194 -217l190 -209l-59 -201l-344 260l4 299l340 267l63 -199v0zM819 934l-194 -217l190 -209l-59 -201l-344 260l4 299l340 267l63 -199v0z" />
<glyph unicode="&#xac;" horiz-adv-x="819" d="M793 483h-95v238h-678v94h768v-8h5v-324v0z" />
<glyph unicode="&#xad;" horiz-adv-x="1024" />
<glyph unicode="&#xae;" horiz-adv-x="1058" d="M997 1184q0 -188 -141 -315.5t-324 -127.5q-186 0 -331.5 123t-145.5 318q0 197 147.5 326.5t338.5 129.5q184 0 320 -134t136 -320v0zM928 1184q0 162 -118 278.5t-278 116.5q-162 0 -286.5 -108.5t-124.5 -276.5q0 -172 122 -281.5t289 -109.5q156 0 276 110.5 t120 270.5v0zM715 965h-78q-4 8 -8 21t-8 30q-2 10 -5.5 20.5t-5.5 20.5q-12 43 -28.5 76.5t-49.5 33.5h-79v-202h-72v456h176h5h5q55 -2 100.5 -25.5t45.5 -86.5q0 -47 -29 -75t-70 -44q29 -12 44.5 -49t25.5 -78q2 -6 4 -13.5t4 -13.5q4 -20 10.5 -38.5t12.5 -32.5v0z M631 1300v4.5v4.5q-2 2 -2 4v4t-1 3l-1 1q0 2 -1 2t-1 2l-1 2t-1 4q-12 12 -25.5 20.5t-32.5 8.5h-112v-131h100q29 0 53.5 21.5t24.5 49.5v0z" />
<glyph unicode="&#xaf;" horiz-adv-x="714" />
<glyph unicode="&#xb0;" horiz-adv-x="512" d="M479 1317q0 -90 -64.5 -154.5t-154.5 -64.5q-92 0 -156.5 64.5t-64.5 154.5t65.5 154.5t155.5 64.5q88 0 153.5 -64.5t65.5 -154.5v0zM395 1317q0 55 -40 96t-95 41q-57 0 -97 -40t-40 -97t40 -97t97 -40q55 0 95 40t40 97v0z" />
<glyph unicode="&#xb1;" horiz-adv-x="911" d="M928 -12h-942v278h942v-278v0zM928 643h-332v-332h-279v332h-331v279h331v331h279v-331h332v-279v0z" />
<glyph unicode="&#xb2;" horiz-adv-x="579" d="M553 1194l-92 -190h-434l174 247q-80 20 -127 65.5t-47 100.5q0 6 1 13.5t3 15.5q20 78 82.5 108.5t132.5 34.5h14h14q102 0 151.5 -56t47.5 -124q0 -20 -5 -41.5t-15 -40.5l-97 -172q39 2 89.5 12.5t107.5 26.5v0zM305 1384q0 29 -19.5 48.5t-47.5 19.5 q-29 0 -49.5 -19.5t-20.5 -48.5q0 -27 20.5 -46t49.5 -19t48 19.5t19 45.5v0z" />
<glyph unicode="&#xb3;" horiz-adv-x="395" d="M377 1440q0 -41 -25.5 -83t-68.5 -83q39 -25 63.5 -56.5t24.5 -76.5v-4v-4q-2 -2 -2 -4.5v-4.5q-4 -47 -47 -75.5t-93 -47.5q-12 -4 -23 -8l-22 -8l-166 59q6 4 11.5 7.5t11.5 7.5q31 20 56.5 42.5t25.5 53.5q0 41 -31 64.5t-67 44.5v19v17q53 27 77.5 59t26.5 68 q4 39 -20.5 61.5t-55.5 41.5q0 2 -2 2t-4 2q-6 4 -11 7t-11 7l147 51q92 -31 148.5 -69.5t56.5 -89.5v0z" />
<glyph unicode="&#xb4;" horiz-adv-x="677" d="M678 1712q-84 -106 -183.5 -183t-213.5 -124l-242 49l326 373l313 -115v0z" />
<glyph unicode="&#xb5;" horiz-adv-x="1269" d="M1272 309q0 -14 -12.5 -60t-40.5 -99q-47 -86 -111 -128t-143 -42q-88 0 -137.5 49t-55.5 143q-41 -96 -109.5 -142t-166.5 -46t-157.5 47t-70.5 135q-18 -119 -26.5 -208t-16.5 -153q0 -16 -2 -29.5t-4 -25.5q-14 -96 -45 -136t-108 -40q-63 0 -99.5 39t-36.5 104 q0 59 38 171t85 282q12 47 25.5 99.5t25.5 109.5l107 506h336l-117 -543q-8 -33 -11 -61.5t-3 -49.5q0 -49 24.5 -74.5t65.5 -25.5q59 0 93 56.5t60 174.5l115 523h334l-111 -514q-4 -20 -6 -40t-2 -34q0 -43 20.5 -66.5t57.5 -23.5q33 0 51.5 15.5t34.5 39.5q6 8 10 16.5 t11 16.5q4 8 8 15l8 14q10 12 20.5 19t26.5 7t25.5 -12t9.5 -29v0z" />
<glyph unicode="&#xb6;" horiz-adv-x="882" d="M578 -338h-154v922q-178 33 -296 175t-118 322q0 201 125 333t314 171q10 2 21 2t26 -2h13h15q12 0 25.5 1t28.5 3v-1927v0zM915 1432h-92v-1770h-151v1925h243v-155v0z" />
<glyph unicode="&#xb7;" horiz-adv-x="714" />
<glyph unicode="&#xb8;" horiz-adv-x="655" d="M588 94l-156 -555q-2 2 -70.5 2h-148.5h-151h-68l22 156q16 113 116.5 189.5t217.5 125.5q66 27 128.5 47.5t109.5 34.5v0z" />
<glyph unicode="&#xb9;" horiz-adv-x="419" d="M401 1004h-227l-2 393l-152 22l-2 21q90 35 176.5 70.5t165.5 74.5l33 -12l8 -569v0z" />
<glyph unicode="&#xba;" horiz-adv-x="692" d="M616 1253q0 -131 -86 -210.5t-227 -79.5q-143 0 -228 79.5t-85 210.5q0 133 85 212t228 79q141 0 227 -79t86 -212v0zM395 1260q0 39 -26.5 65.5t-65.5 26.5t-66.5 -27t-27.5 -65q0 -39 27.5 -67t66.5 -28t65.5 28t26.5 67v0z" />
<glyph unicode="&#xbb;" horiz-adv-x="835" d="M428 567l-344 -260l-59 201l190 209l-195 217l64 199l340 -267l4 -299v0zM817 567l-344 -260l-59 201l190 209l-194 217l63 199l340 -267l4 -299v0z" />
<glyph unicode="&#xbc;" horiz-adv-x="1024" />
<glyph unicode="&#xbd;" horiz-adv-x="1024" />
<glyph unicode="&#xbe;" horiz-adv-x="1024" />
<glyph unicode="&#xbf;" horiz-adv-x="776" d="M737 -176l-391 -215q-63 35 -122.5 71.5t-100.5 94.5q-20 31 -36.5 63.5t-16.5 73.5q0 27 8 57.5t28 65.5q8 14 14.5 30.5t12.5 32.5q0 2 1 4t3 7q2 8 6 18t9 18q12 29 19 61t7 64q0 12 -1 24.5t-5 27.5q-2 12 -7 24t-11 25q-12 27 -30 49t-36 45q-2 4 -4 7t-4 5 q-6 8 -13.5 17.5t-13.5 17.5q10 6 20.5 12t20.5 13q47 29 96.5 54t100.5 36q6 2 11 3t9 1q4 2 9.5 3t11.5 1l-269 194l271 277l53 -33t117 -72q61 -39 113.5 -71.5t54.5 -34.5l-223 -250q92 0 164.5 -30.5t111.5 -102.5q18 -31 26.5 -61.5t8.5 -61.5q0 -51 -20.5 -101 t-55.5 -100q-27 -39 -40 -73.5t-13 -69.5q0 -14 3 -27.5t7 -25.5q16 -41 40 -83t56 -83v-2z" />
<glyph unicode="&#xc0;" horiz-adv-x="1968" d="M1810 0h-583l-94 231h-484l-84 -231h-542l573 1452h528l686 -1452v0zM971 623l-97 229l-83 -229h180v0zM1116 1556l-242 -49q-115 47 -214 124t-183 184l314 114l325 -373v0z" />
<glyph unicode="&#xc1;" horiz-adv-x="1968" d="M1810 0h-583l-94 231h-484l-84 -231h-542l573 1452h528l686 -1452v0zM971 623l-97 229l-83 -229h180v0zM1313 1794q-84 -106 -183.5 -183t-214.5 -124l-241 49l325 373l314 -115v0z" />
<glyph unicode="&#xc2;" horiz-adv-x="1968" d="M1810 0h-583l-94 231h-484l-84 -231h-542l573 1452h528l686 -1452v0zM971 623l-97 229l-83 -229h180v0zM1278 1546l-199 -63l-217 194l-209 -190l-200 59l260 344l299 -4l266 -340v0z" />
<glyph unicode="&#xc3;" horiz-adv-x="1968" d="M1810 0h-583l-94 231h-484l-84 -231h-542l573 1452h528l686 -1452v0zM971 623l-97 229l-83 -229h180v0zM1341 1634l-159 -153q-4 6 -8.5 12t-10.5 12q-25 35 -64.5 62.5t-88.5 27.5q-10 0 -21.5 -1t-21.5 -5q-29 -10 -55.5 -20t-49.5 -23q-47 -23 -88 -42t-80 -25 q-12 -2 -23.5 -2h-21.5q-111 8 -178.5 59t-114.5 139l142 133q8 -6 15 -11t15 -11q18 -14 37 -26.5t39 -22.5q12 -6 26.5 -9.5t26.5 -3.5h7.5h7.5q2 0 6 1t6 4q121 47 205 82.5t147 35.5h12.5t12.5 -2q129 -18 185.5 -78.5t94.5 -132.5v0z" />
<glyph unicode="&#xc4;" horiz-adv-x="1968" d="M1810 0h-583l-94 231h-484l-84 -231h-542l573 1452h528l686 -1452v0zM971 623l-97 229l-83 -229h180v0zM852 1712l-229 -229l-232 229l232 232l229 -232v0zM1346 1712l-232 -229l-229 229l229 232l232 -232v0z" />
<glyph unicode="&#xc5;" horiz-adv-x="1968" d="M1810 0h-583l-94 231h-484l-84 -231h-542l573 1452h528l686 -1452v0zM971 623l-97 229l-83 -229h180v0zM1198 1712q0 -102 -99.5 -176t-238.5 -74t-238.5 74t-99.5 176q0 104 99.5 177t238.5 73t238.5 -72.5t99.5 -177.5v0zM967 1718q0 39 -30 65.5t-71 26.5t-70.5 -26.5 t-29.5 -65.5t29.5 -65.5t70.5 -26.5t71 26.5t30 65.5v0z" />
<glyph unicode="&#xc6;" horiz-adv-x="2519" d="M2404 1065q-125 20 -253 23.5t-257 -7.5q-2 -41 -2 -84v-86q127 -8 253 -5t251 24l-86 -387h-418v-86t2 -86q127 -8 253 -5t251 21l-86 -387h-250h-245h-246h-250l4 229h-485l-183 -229h-542l1200 1452h1003l86 -387v0zM1335 852l-184 -229h182l2 229v0z" />
<glyph unicode="&#xc7;" horiz-adv-x="1169" d="M854 217l-156 -555q-2 2 -70.5 2h-148.5h-153h-68l25 156q16 113 116.5 188.5t216.5 126.5q66 27 128.5 47.5t109.5 34.5v0zM1116 424l-207 -455q-367 59 -611.5 274.5t-244.5 493.5q0 270 229.5 480t575.5 280l254 -422q-168 -35 -275.5 -124t-107.5 -201 q0 -113 109.5 -202t277.5 -124v0z" />
<glyph unicode="&#xc8;" horiz-adv-x="1214" d="M1122 1065q-125 20 -253 23.5t-257 -7.5q-2 -41 -2 -84v-86q127 -8 253 -5t251 24l-86 -387h-420q0 -20 1 -42t1 -44q0 -20 1 -42t1 -44q127 -8 253 -5t251 23l-86 -389h-253h-253h-253h-253q8 182 11.5 363.5t3.5 363.5q0 180 -4 362.5t-11 362.5h254h256h254h254 l86 -387v0zM788 1556l-241 -49q-115 47 -214.5 124t-182.5 184l313 114l325 -373v0z" />
<glyph unicode="&#xc9;" horiz-adv-x="1214" d="M1122 1065q-125 20 -253 23.5t-257 -7.5q-2 -41 -2 -84v-86q127 -8 253 -5t251 24l-86 -387h-420q0 -20 1 -42t1 -44q0 -20 1 -42t1 -44q127 -8 253 -5t251 23l-86 -389h-253h-253h-253h-253q8 182 11.5 363.5t3.5 363.5q0 180 -4 362.5t-11 362.5h254h256h254h254 l86 -387v0zM985 1794q-84 -106 -183.5 -183t-213.5 -124l-242 49l326 373l313 -115v0z" />
<glyph unicode="&#xca;" horiz-adv-x="1214" d="M1122 1065q-125 20 -253 23.5t-257 -7.5q-2 -41 -2 -84v-86q127 -8 253 -5t251 24l-86 -387h-420q0 -20 1 -42t1 -44q0 -20 1 -42t1 -44q127 -8 253 -5t251 23l-86 -389h-253h-253h-253h-253q8 182 11.5 363.5t3.5 363.5q0 180 -4 362.5t-11 362.5h254h256h254h254 l86 -387v0zM930 1546l-199 -63l-217 194l-209 -190l-201 59l261 344l299 -4l266 -340v0z" />
<glyph unicode="&#xcb;" horiz-adv-x="1214" d="M1122 1065q-125 20 -253 23.5t-257 -7.5q-2 -41 -2 -84v-86q127 -8 253 -5t251 24l-86 -387h-420q0 -20 1 -42t1 -44q0 -20 1 -42t1 -44q127 -8 253 -5t251 23l-86 -389h-253h-253h-253h-253q8 182 11.5 363.5t3.5 363.5q0 180 -4 362.5t-11 362.5h254h256h254h254 l86 -387v0zM504 1712l-230 -229l-231 229l231 232l230 -232v0zM997 1712l-231 -229l-229 229l229 232l231 -232v0z" />
<glyph unicode="&#xcc;" horiz-adv-x="665" d="M635 0h-604q6 182 10 363.5t4 363.5q0 180 -4 362.5t-10 362.5h604q-6 -180 -10 -362.5t-4 -362.5q0 -182 3 -363.5t11 -363.5v0zM604 1556l-242 -49q-115 47 -214 124t-181 184l312 114l325 -373v0z" />
<glyph unicode="&#xcd;" horiz-adv-x="665" d="M635 0h-604q6 182 10 363.5t4 363.5q0 180 -4 362.5t-10 362.5h604q-6 -180 -10 -362.5t-4 -362.5q0 -182 3 -363.5t11 -363.5v0zM801 1794q-84 -106 -183.5 -183t-214.5 -124l-241 49l325 373l314 -115v0z" />
<glyph unicode="&#xce;" horiz-adv-x="665" d="M635 0h-604q6 182 10 363.5t4 363.5q0 180 -4 362.5t-10 362.5h604q-6 -180 -10 -362.5t-4 -362.5q0 -182 3 -363.5t11 -363.5v0zM766 1546l-199 -63l-217 194l-209 -190l-200 59l260 344l299 -4l266 -340v0z" />
<glyph unicode="&#xcf;" horiz-adv-x="665" d="M635 0h-604q6 182 10 363.5t4 363.5q0 180 -4 362.5t-10 362.5h604q-6 -180 -10 -362.5t-4 -362.5q0 -182 3 -363.5t11 -363.5v0zM319 1712l-229 -229l-231 229l231 232l229 -232v0zM813 1712l-231 -229l-230 229l230 232l231 -232v0z" />
<glyph unicode="&#xd0;" horiz-adv-x="1710" d="M1479 1169q78 -102 115.5 -223t37.5 -246q0 -211 -113.5 -396t-338.5 -269q-90 -33 -193.5 -35t-220.5 0h-63.5h-65.5h-218.5h-217.5q4 74 6 147.5t4 149.5q0 74 2 147.5t2 147.5l-133 -14l-4 284l137 -12q-2 152 -5 302.5t-9 299.5h592q225 -2 399 -68.5t287 -214.5v0z M1098 702q-41 90 -103.5 140.5t-130.5 75.5q-33 10 -65.5 17t-63.5 9v-27.5v-27.5q-2 -14 -2 -27.5v-27.5l144 6l12 -242l-156 8v-35.5t2 -33.5v-36v-36q10 0 19.5 2t19.5 4q98 16 187.5 74.5t136.5 156.5v0z" />
<glyph unicode="&#xd1;" horiz-adv-x="1761" d="M1614 0h-400l-649 668v-102.5t-2 -102.5v-64.5v-64.5q-2 -84 -1 -167t5 -167h-555q23 176 34 356.5t11 360.5q0 182 -11 365.5t-34 369.5h416l604 -541q-6 135 -12 270.5t-12 270.5h606q-31 -358 -23 -721.5t23 -730.5v0zM1362 1634l-160 -153l-8 12t-10 12 q-25 35 -65 62.5t-89 27.5q-10 0 -21.5 -1t-21.5 -5q-29 -10 -55.5 -20t-48.5 -23q-47 -23 -88 -42t-80 -25q-12 -2 -23.5 -2h-21.5q-111 8 -178.5 59t-114.5 139l141 133q8 -6 15.5 -11t15.5 -11q18 -14 36.5 -26.5t39.5 -22.5q12 -6 26.5 -9.5t26.5 -3.5h7h7q2 0 6 1t7 4 q121 47 204.5 82.5t147.5 35.5h12t12 -2q129 -18 185.5 -78.5t95.5 -132.5v0z" />
<glyph unicode="&#xd2;" horiz-adv-x="714" />
<glyph unicode="&#xd3;" d="M1593 727q0 -332 -215 -529.5t-571 -197.5t-572.5 197.5t-216.5 529.5q0 330 216.5 527.5t572.5 197.5t571 -197.5t215 -527.5v0zM1040 741q0 96 -68.5 165t-164.5 69t-165 -68.5t-69 -165.5q0 -96 69 -164.5t165 -68.5t164.5 68.5t68.5 164.5v0zM1333 1794 q-84 -106 -183 -183t-214 -124l-242 49l326 373l313 -115v0z" />
<glyph unicode="&#xd4;" d="M1593 727q0 -332 -215 -529.5t-571 -197.5t-572.5 197.5t-216.5 529.5q0 330 216.5 527.5t572.5 197.5t571 -197.5t215 -527.5v0zM1040 741q0 96 -68.5 165t-164.5 69t-165 -68.5t-69 -165.5q0 -96 69 -164.5t165 -68.5t164.5 68.5t68.5 164.5v0zM1278 1526l-199 -64 l-217 195l-209 -191l-200 60l260 344l299 -4l266 -340v0z" />
<glyph unicode="&#xd5;" d="M1593 727q0 -332 -215 -529.5t-571 -197.5t-572.5 197.5t-216.5 529.5q0 330 216.5 527.5t572.5 197.5t571 -197.5t215 -527.5v0zM1040 741q0 96 -68.5 165t-164.5 69t-165 -68.5t-69 -165.5q0 -96 69 -164.5t165 -68.5t164.5 68.5t68.5 164.5v0zM1341 1634l-159 -153 q-4 6 -8.5 12t-10.5 12q-25 35 -64.5 62.5t-88.5 27.5q-10 0 -21.5 -1t-21.5 -5q-29 -10 -55.5 -20t-49.5 -23q-47 -23 -88 -42t-80 -25q-12 -2 -23.5 -2h-21.5q-111 8 -178.5 59t-114.5 139l142 133q8 -6 15 -11t15 -11q18 -14 37 -26.5t39 -22.5q12 -6 26.5 -9.5 t26.5 -3.5h7.5h7.5q2 0 6 1t6 4q121 47 205 82.5t147 35.5h12.5t12.5 -2q129 -18 185.5 -78.5t94.5 -132.5v0z" />
<glyph unicode="&#xd6;" d="M1593 727q0 -332 -215 -529.5t-571 -197.5t-572.5 197.5t-216.5 529.5q0 330 216.5 527.5t572.5 197.5t571 -197.5t215 -527.5v0zM1040 741q0 96 -68.5 165t-164.5 69t-165 -68.5t-69 -165.5q0 -96 69 -164.5t165 -68.5t164.5 68.5t68.5 164.5v0zM852 1692l-229 -230 l-232 230l232 231l229 -231v0zM1346 1692l-232 -230l-229 230l229 231l232 -231v0z" />
<glyph unicode="&#xd7;" horiz-adv-x="911" d="M889 403l-197 -196l-235 235l-236 -235l-196 196l235 236l-235 235l196 197l236 -235l235 235l197 -197l-236 -235l236 -236v0z" />
<glyph unicode="&#xd8;" d="M1653 727q0 -332 -215 -529.5t-572 -197.5q-145 0 -269 35t-220 98q-35 -37 -71 -73.5t-70 -71.5l-54.5 54.5t-56.5 53.5q18 16 35.5 32.5t34.5 33.5q16 16 33.5 32.5t35.5 32.5q-88 94 -137 220t-49 280q0 330 216 527.5t572 197.5q145 0 269.5 -34t220.5 -99 q35 37 70.5 74t68.5 73q29 -27 56.5 -54.5t54.5 -55.5q-16 -16 -34 -32.5t-34 -33.5q-18 -16 -35.5 -32.5t-34.5 -32.5q90 -94 137.5 -220t47.5 -278v0zM1100 741q0 29 -6.5 54.5t-18.5 48.5q-78 -76 -156.5 -155t-156.5 -157q23 -12 50.5 -18t53.5 -6q96 0 165 68.5 t69 164.5v0zM989 940q-27 16 -57.5 25.5t-65.5 9.5q-96 0 -164.5 -68.5t-68.5 -165.5q0 -33 9 -64.5t26 -58.5q41 41 80.5 81t80.5 79q39 41 80 81t80 81v0z" />
<glyph unicode="&#xd9;" horiz-adv-x="1660" d="M1528 0h-539q-6 49 -12 99.5t-12 101.5q-8 -12 -17.5 -24.5t-19.5 -24.5q-10 -16 -21.5 -32t-23.5 -30q-20 -29 -41 -54.5t-41 -47.5q-211 -2 -406.5 41t-378.5 125q39 201 54.5 382t15.5 347q0 152 -11.5 292t-27.5 277h148.5h148.5h148.5h148.5v-13v-14 q-4 -238 -15.5 -468t-66.5 -422q57 -53 136 -86t179 -33q16 0 35 1t37 3q-12 166 -16 339t-2 347q2 86 6 173t8 173h586q-6 -180 -10.5 -362.5t-4.5 -362.5q0 -182 3.5 -363.5t11.5 -363.5v0zM1096 1536l-242 -49q-115 47 -214 124t-183 183l313 115l326 -373v0z" />
<glyph unicode="&#xda;" horiz-adv-x="1660" d="M1528 0h-539q-6 49 -12 99.5t-12 101.5q-8 -12 -17.5 -24.5t-19.5 -24.5q-10 -16 -21.5 -32t-23.5 -30q-20 -29 -41 -54.5t-41 -47.5q-211 -2 -406.5 41t-378.5 125q39 201 54.5 382t15.5 347q0 152 -11.5 292t-27.5 277h148.5h148.5h148.5h148.5v-13v-14 q-4 -238 -15.5 -468t-66.5 -422q57 -53 136 -86t179 -33q16 0 35 1t37 3q-12 166 -16 339t-2 347q2 86 6 173t8 173h586q-6 -180 -10.5 -362.5t-4.5 -362.5q0 -182 3.5 -363.5t11.5 -363.5v0zM1292 1794q-84 -106 -183 -183t-214 -124l-242 49l326 373l313 -115v0z" />
<glyph unicode="&#xdb;" horiz-adv-x="1660" d="M1528 0h-539q-6 49 -12 99.5t-12 101.5q-8 -12 -17.5 -24.5t-19.5 -24.5q-10 -16 -21.5 -32t-23.5 -30q-20 -29 -41 -54.5t-41 -47.5q-211 -2 -406.5 41t-378.5 125q39 201 54.5 382t15.5 347q0 152 -11.5 292t-27.5 277h148.5h148.5h148.5h148.5v-13v-14 q-4 -238 -15.5 -468t-66.5 -422q57 -53 136 -86t179 -33q16 0 35 1t37 3q-12 166 -16 339t-2 347q2 86 6 173t8 173h586q-6 -180 -10.5 -362.5t-4.5 -362.5q0 -182 3.5 -363.5t11.5 -363.5v0zM1278 1546l-199 -63l-217 194l-209 -190l-200 59l260 344l299 -4l266 -340v0z " />
<glyph unicode="&#xdc;" horiz-adv-x="1660" d="M1528 0h-539q-6 49 -12 99.5t-12 101.5q-8 -12 -17.5 -24.5t-19.5 -24.5q-10 -16 -21.5 -32t-23.5 -30q-20 -29 -41 -54.5t-41 -47.5q-211 -2 -406.5 41t-378.5 125q39 201 54.5 382t15.5 347q0 152 -11.5 292t-27.5 277h148.5h148.5h148.5h148.5v-13v-14 q-4 -238 -15.5 -468t-66.5 -422q57 -53 136 -86t179 -33q16 0 35 1t37 3q-12 166 -16 339t-2 347q2 86 6 173t8 173h586q-6 -180 -10.5 -362.5t-4.5 -362.5q0 -182 3.5 -363.5t11.5 -363.5v0zM831 1712l-229 -229l-231 229l231 232l229 -232v0zM1325 1712l-231 -229 l-230 229l230 232l231 -232v0z" />
<glyph unicode="&#xdd;" horiz-adv-x="714" />
<glyph unicode="&#xde;" horiz-adv-x="1466" d="M1360 940q23 -39 32 -83t9 -91q0 -27 -3 -55.5t-9 -57.5q-23 -106 -75 -204.5t-110 -165.5q-35 -41 -84 -67t-116 -30q-100 -6 -190.5 -4t-172.5 11q2 -25 3 -49.5t3 -47.5q0 -25 1 -48t3 -48h-581q37 367 30.5 732.5t-32.5 719.5h591l-20 -147h25q147 0 244.5 -11.5 t148.5 -46.5q100 -70 178 -145.5t125 -161.5v0zM907 735q8 16 12.5 30.5t4.5 29.5q0 25 -11.5 46t-29.5 38q-55 53 -115.5 87.5t-122.5 61.5q-8 -131 -10 -263t-2 -263q90 27 159.5 86t114.5 147v0z" />
<glyph unicode="&#xdf;" horiz-adv-x="1669" d="M1563 197q-43 -84 -123 -131.5t-166 -75.5q-18 -8 -37.5 -15.5t-40.5 -13.5q-2 -2 -4 -3t-4 -1q-47 27 -95.5 52.5t-95.5 51.5q-47 27 -95 53.5t-95 53.5l14 25q63 16 112.5 53t49.5 100q0 10 -1 21.5t-5 21.5q-10 39 -32.5 73t-49.5 64q-2 4 -4 7.5t-4 5.5 q-33 39 -56.5 81t-23.5 95q0 12 2 25.5t4 27.5q10 35 29.5 68.5t46.5 62.5l7 7l5 5q18 16 41 33t45 31q14 8 28.5 15t26.5 14q-8 10 -16 16t-18 12q-20 12 -44 18.5t-46 6.5q-45 0 -83 -20.5t-61 -61.5q-10 -16 -15 -34.5t-7 -37.5q-14 -174 -6 -347t18 -343q4 -53 8 -106.5 t6 -106.5l-569 -164l29 649l-148 -16l-14 248l162 -10l-17 395q-6 156 166 263.5t393 107.5q20 0 41 -1.5t41 -3.5q72 -8 143.5 -29.5t137.5 -60.5q131 -76 229 -200.5t98 -278.5q0 -37 -7 -75t-21 -76q-6 -16 -11.5 -32t-7.5 -30q-2 -6 -2 -11v-9q0 -18 7.5 -37t27.5 -41 q53 -59 95 -128t42 -147q0 -29 -7 -58.5t-23 -57.5v0z" />
<glyph unicode="&#xe0;" d="M1593 0h-514l-82 203h-426l-73 -203h-478l504 1278h465l604 -1278v0zM854 549l-84 201l-74 -201h158v0zM993 1372l-241 -49q-115 47 -214.5 124t-183.5 183l314 115l325 -373v0z" />
<glyph unicode="&#xe1;" d="M1593 0h-514l-82 203h-426l-73 -203h-478l504 1278h465l604 -1278v0zM854 549l-84 201l-74 -201h158v0zM1210 1610q-84 -106 -183 -183t-214 -124l-242 49l326 372l313 -114v0z" />
<glyph unicode="&#xe2;" d="M1593 0h-514l-82 203h-426l-73 -203h-478l504 1278h465l604 -1278v0zM854 549l-84 201l-74 -201h158v0zM1176 1362l-199 -64l-217 195l-209 -190l-201 59l260 344l299 -4l267 -340v0z" />
<glyph unicode="&#xe3;" d="M1593 0h-514l-82 203h-426l-73 -203h-478l504 1278h465l604 -1278v0zM854 549l-84 201l-74 -201h158v0zM1219 1470l-160 -153l-8 12t-11 12q-25 35 -64.5 63t-88.5 28q-10 0 -21.5 -1t-21.5 -6q-29 -10 -55.5 -20t-49.5 -23q-47 -23 -88 -42t-80 -25q-12 -2 -23 -2h-22 q-111 8 -178 59t-115 139l142 134q8 -6 15 -11.5t16 -11.5q18 -14 36.5 -26.5t38.5 -22.5q12 -6 26.5 -9t27.5 -3h7h7q2 0 6 1t6 3q121 47 205 82.5t147 35.5h12.5t12.5 -2q129 -18 185.5 -78.5t95.5 -132.5v0z" />
<glyph unicode="&#xe4;" d="M1593 0h-514l-82 203h-426l-73 -203h-478l504 1278h465l604 -1278v0zM854 549l-84 201l-74 -201h158v0zM750 1528l-230 -230l-231 230l231 231l230 -231v0zM1243 1528l-231 -230l-230 230l230 231l231 -231v0z" />
<glyph unicode="&#xe5;" d="M1593 0h-514l-82 203h-426l-73 -203h-478l504 1278h465l604 -1278v0zM854 549l-84 201l-74 -201h158v0zM1096 1548q0 -102 -99.5 -176t-238.5 -74t-238.5 74t-99.5 176q0 104 99 177t239 73q139 0 238.5 -72.5t99.5 -177.5v0zM864 1554q0 39 -29.5 66t-70.5 27t-70.5 -27 t-29.5 -66t29.5 -65.5t70.5 -26.5t70.5 27t29.5 65v0z" />
<glyph unicode="&#xe6;" horiz-adv-x="2215" d="M2116 938q-111 16 -222.5 19.5t-226.5 -5.5q0 -18 -1 -36.5t-1 -36.5v-39v-37q113 -8 223.5 -5t220.5 21l-75 -342h-369v-74.5t2 -76.5q113 -8 223.5 -4t218.5 18l-73 -340h-229.5h-223.5h-207.5h-212.5l2 203h-426l-161 -203h-478l1057 1278h883l76 -340v0zM1176 750 l-162 -201h160l2 201v0z" />
<glyph unicode="&#xe7;" horiz-adv-x="1028" d="M752 176l-156 -555q-2 2 -70.5 2h-148.5h-153h-68l24 156q16 113 116.5 188.5t217.5 126.5q66 27 128.5 47.5t109.5 34.5v0zM983 373l-182 -400q-324 53 -539 241.5t-215 434.5q0 238 202 423t507 245l223 -371q-147 -31 -242.5 -109.5t-95.5 -177.5q0 -100 96.5 -178 t245.5 -108v0z" />
<glyph unicode="&#xe8;" horiz-adv-x="1069" d="M987 938q-111 16 -222.5 19.5t-225.5 -5.5q0 -18 -1 -36.5t-1 -36.5v-39v-37q113 -8 223 -5t221 21l-76 -342h-370q0 -18 1 -36.5t1 -39.5q0 -18 1 -37.5t1 -37.5q113 -8 223 -4t221 20l-76 -342h-298h-296h-148.5h-148.5q14 319 13.5 638.5t-13.5 639.5h224.5h224.5 h222.5h223.5l76 -340v0zM707 1352l-242 -49q-115 47 -214 123.5t-183 183.5l313 114l326 -372v0z" />
<glyph unicode="&#xe9;" horiz-adv-x="1069" d="M987 938q-111 16 -222.5 19.5t-225.5 -5.5q0 -18 -1 -36.5t-1 -36.5v-39v-37q113 -8 223 -5t221 21l-76 -342h-370q0 -18 1 -36.5t1 -39.5q0 -18 1 -37.5t1 -37.5q113 -8 223 -4t221 20l-76 -342h-298h-296h-148.5h-148.5q14 319 13.5 638.5t-13.5 639.5h224.5h224.5 h222.5h223.5l76 -340v0zM965 1610q-84 -106 -183.5 -183t-214.5 -124l-241 49l325 372l314 -114v0z" />
<glyph unicode="&#xea;" horiz-adv-x="1069" d="M987 938q-111 16 -222.5 19.5t-225.5 -5.5q0 -18 -1 -36.5t-1 -36.5v-39v-37q113 -8 223 -5t221 21l-76 -342h-370q0 -18 1 -36.5t1 -39.5q0 -18 1 -37.5t1 -37.5q113 -8 223 -4t221 20l-76 -342h-298h-296h-148.5h-148.5q14 319 13.5 638.5t-13.5 639.5h224.5h224.5 h222.5h223.5l76 -340v0zM909 1362l-198 -64l-217 195l-209 -190l-201 59l260 344l299 -4l266 -340v0z" />
<glyph unicode="&#xeb;" horiz-adv-x="1069" d="M987 938q-111 16 -222.5 19.5t-225.5 -5.5q0 -18 -1 -36.5t-1 -36.5v-39v-37q113 -8 223 -5t221 21l-76 -342h-370q0 -18 1 -36.5t1 -39.5q0 -18 1 -37.5t1 -37.5q113 -8 223 -4t221 20l-76 -342h-298h-296h-148.5h-148.5q14 319 13.5 638.5t-13.5 639.5h224.5h224.5 h222.5h223.5l76 -340v0zM463 1528l-230 -230l-231 230l231 231l230 -231v0zM956 1528l-231 -230l-229 230l229 231l231 -231v0z" />
<glyph unicode="&#xec;" horiz-adv-x="585" d="M559 0h-532q12 319 12 638.5t-12 639.5h532q-12 -319 -13 -639t13 -639v0zM604 1352l-242 -49q-115 47 -214 123.5t-181 183.5l312 114l325 -372v0z" />
<glyph unicode="&#xed;" horiz-adv-x="585" d="M559 0h-532q12 319 12 638.5t-12 639.5h532q-12 -319 -13 -639t13 -639v0zM739 1610q-84 -106 -183 -183t-214 -124l-242 49l326 372l313 -114v0z" />
<glyph unicode="&#xee;" horiz-adv-x="585" d="M559 0h-532q12 319 12 638.5t-12 639.5h532q-12 -319 -13 -639t13 -639v0zM705 1362l-199 -64l-217 195l-209 -190l-201 59l260 344l299 -4l267 -340v0z" />
<glyph unicode="&#xef;" horiz-adv-x="585" d="M559 0h-532q12 319 12 638.5t-12 639.5h532q-12 -319 -13 -639t13 -639v0zM279 1528l-230 -230l-231 230l231 231l230 -231v0zM772 1528l-231 -230l-230 230l230 231l231 -231v0z" />
<glyph unicode="&#xf0;" horiz-adv-x="1505" d="M1300 1028q63 -84 98.5 -182t39.5 -201v-13v-16q-2 -184 -100.5 -349t-299.5 -236q-78 -29 -169 -31t-193 0h-57.5h-57.5h-97h-95h-95.5h-97.5q4 66 6 130.5t4 129.5q0 66 1 131.5t1 128.5l-116 -12l-4 250l120 -10q0 66 -1 132t-1 134l-4 132t-6 132h522 q197 -2 350.5 -60.5t251.5 -189.5v0zM967 618q-37 78 -92.5 122t-112.5 67q-31 10 -59.5 16t-55.5 8v-24v-25q-2 -12 -2 -24.5v-24.5l127 6l10 -213l-137 6v-29.5t2 -31.5v-29.5v-31.5q8 0 15.5 1t13.5 3q88 14 169 65t122 139v0z" />
<glyph unicode="&#xf1;" horiz-adv-x="1550" d="M1479 0h-351l-571 588v-90t-2 -90v-57.5v-55.5q-2 -74 -1 -147.5t5 -147.5h-489q20 156 30.5 312.5t10.5 314.5q-2 162 -11.5 324.5t-29.5 326.5h366l533 -475q-2 59 -5 118.5t-6 118.5q-4 59 -6 119t-6 119h533q-23 -262 -21 -529.5t12 -533.5q2 -43 3.5 -84t3.5 -84 q0 -12 1 -23.5t1 -23.5v0zM1219 1470l-160 -153l-8 12t-11 12q-25 35 -64.5 63t-88.5 28q-10 0 -21.5 -1t-21.5 -6q-29 -10 -55.5 -20t-49.5 -23q-47 -23 -88 -42t-80 -25q-12 -2 -23 -2h-22q-111 8 -178 59t-115 139l142 134q8 -6 15 -11.5t16 -11.5q18 -14 36.5 -26.5 t38.5 -22.5q12 -6 26.5 -9t27.5 -3h7h7q2 0 6 1t6 3q121 47 205 82.5t147 35.5h12.5t12.5 -2q129 -18 185.5 -78.5t95.5 -132.5v0z" />
<glyph unicode="&#xf2;" horiz-adv-x="1523" d="M1454 639q0 -291 -189.5 -465t-502.5 -174t-503.5 174t-190.5 465q0 293 190.5 466t503.5 173t502.5 -173t189.5 -466v0zM969 653q0 84 -60.5 144.5t-146.5 60.5q-84 0 -144.5 -60.5t-60.5 -144.5q0 -86 60.5 -146.5t144.5 -60.5q86 0 146.5 60.5t60.5 146.5v0zM973 1352 l-242 -49q-115 47 -214 123.5t-183 183.5l313 114l326 -372v0z" />
<glyph unicode="&#xf3;" horiz-adv-x="1523" d="M1454 639q0 -291 -189.5 -465t-502.5 -174t-503.5 174t-190.5 465q0 293 190.5 466t503.5 173t502.5 -173t189.5 -466v0zM969 653q0 84 -60.5 144.5t-146.5 60.5q-84 0 -144.5 -60.5t-60.5 -144.5q0 -86 60.5 -146.5t144.5 -60.5q86 0 146.5 60.5t60.5 146.5v0z M1231 1610q-84 -106 -183.5 -183t-213.5 -124l-242 49l326 372l313 -114v0z" />
<glyph unicode="&#xf4;" horiz-adv-x="1523" d="M1454 639q0 -291 -189.5 -465t-502.5 -174t-503.5 174t-190.5 465q0 293 190.5 466t503.5 173t502.5 -173t189.5 -466v0zM969 653q0 84 -60.5 144.5t-146.5 60.5q-84 0 -144.5 -60.5t-60.5 -144.5q0 -86 60.5 -146.5t144.5 -60.5q86 0 146.5 60.5t60.5 146.5v0z M1176 1341l-199 -63l-217 195l-209 -191l-201 59l260 345l299 -5l267 -340v0z" />
<glyph unicode="&#xf5;" horiz-adv-x="1523" d="M1454 639q0 -291 -189.5 -465t-502.5 -174t-503.5 174t-190.5 465q0 293 190.5 466t503.5 173t502.5 -173t189.5 -466v0zM969 653q0 84 -60.5 144.5t-146.5 60.5q-84 0 -144.5 -60.5t-60.5 -144.5q0 -86 60.5 -146.5t144.5 -60.5q86 0 146.5 60.5t60.5 146.5v0z M1239 1450l-160 -154q-4 6 -8 12.5t-10 12.5q-25 35 -65 62.5t-89 27.5q-10 0 -21.5 -1t-21.5 -5q-29 -10 -55.5 -20.5t-48.5 -22.5q-47 -23 -88 -42.5t-80 -25.5q-12 -2 -23.5 -2h-21.5q-111 8 -178.5 59.5t-114.5 139.5l141 133q8 -6 15.5 -11t15.5 -11q18 -14 36.5 -26.5 t39.5 -23.5q12 -6 26.5 -9t26.5 -3h7h7q2 0 6.5 1t6.5 3q121 47 204.5 83t147.5 36h12t12 -2q129 -18 185.5 -78.5t95.5 -132.5v0z" />
<glyph unicode="&#xf6;" horiz-adv-x="1523" d="M1454 639q0 -291 -189.5 -465t-502.5 -174t-503.5 174t-190.5 465q0 293 190.5 466t503.5 173t502.5 -173t189.5 -466v0zM969 653q0 84 -60.5 144.5t-146.5 60.5q-84 0 -144.5 -60.5t-60.5 -144.5q0 -86 60.5 -146.5t144.5 -60.5q86 0 146.5 60.5t60.5 146.5v0zM750 1507 l-230 -229l-231 229l231 232l230 -232v0zM1243 1507l-231 -229l-230 229l230 232l231 -232v0z" />
<glyph unicode="&#xf7;" horiz-adv-x="911" d="M608 350q0 -63 -45 -108t-108 -45t-108.5 45t-45.5 108t45 108.5t109 45.5q63 0 108 -45t45 -109v0zM928 561h-942v279h942v-279v0zM608 1047q0 -63 -45 -108.5t-108 -45.5t-108.5 45t-45.5 109q0 63 45 108t109 45q63 0 108 -45t45 -108v0z" />
<glyph unicode="&#xf8;" horiz-adv-x="1523" d="M1454 639q0 -291 -189.5 -465t-502.5 -174q-127 0 -236.5 29.5t-193.5 87.5q-14 -16 -30.5 -32.5l-31.5 -31.5q-16 -16 -31.5 -32.5t-31.5 -30.5q-12 10 -24.5 22.5t-22.5 24.5q-12 12 -24.5 23.5t-24.5 23.5q10 10 20 19.5t21 19.5q20 18 40.5 38.5t40.5 39.5 q-80 82 -122.5 192.5t-42.5 245.5q0 293 190.5 466t503.5 173q129 0 237.5 -29.5t194.5 -87.5q31 33 61.5 64.5t59.5 64.5q25 -25 49.5 -49t48.5 -47q-10 -10 -20.5 -19.5t-20.5 -19.5l-9 -9l-9 -9q-16 -14 -31.5 -28.5t-30.5 -31.5q78 -82 120 -192.5t42 -245.5v0zM969 653 q0 23 -6.5 46.5t-16.5 43.5q-70 -68 -138.5 -136t-137.5 -138q23 -10 45 -16.5t47 -6.5q86 0 146.5 60.5t60.5 146.5v0zM870 827q-25 16 -51 23.5t-57 7.5q-84 0 -144.5 -60.5t-60.5 -144.5q0 -31 8 -58.5t23 -49.5l47 47l47 47l94 94l94 94v0z" />
<glyph unicode="&#xf9;" horiz-adv-x="1462" d="M1397 0h-473q-2 23 -5.5 44.5t-5.5 43.5q-4 20 -6 43t-6 45q-10 -14 -21.5 -28.5t-21.5 -28.5q-27 -35 -51.5 -69t-48.5 -60q-186 -2 -359.5 34.5t-330.5 110.5q35 176 48 335t13 304q0 133 -9 259t-26 245h261h261v-13.5v-13.5q-4 -209 -14 -410.5t-57 -369.5 q51 -47 121.5 -76.5t158.5 -29.5h15.5t15.5 2q6 0 13.5 1t15.5 1q-10 147 -13.5 298.5t-1.5 305.5q0 76 3.5 152.5t7.5 152.5h516q-12 -319 -13.5 -639t13.5 -639v0zM973 1352l-242 -49q-115 47 -214 123.5t-183 183.5l313 114l326 -372v0z" />
<glyph unicode="&#xfa;" horiz-adv-x="1462" d="M1397 0h-473q-2 23 -5.5 44.5t-5.5 43.5q-4 20 -6 43t-6 45q-10 -14 -21.5 -28.5t-21.5 -28.5q-27 -35 -51.5 -69t-48.5 -60q-186 -2 -359.5 34.5t-330.5 110.5q35 176 48 335t13 304q0 133 -9 259t-26 245h261h261v-13.5v-13.5q-4 -209 -14 -410.5t-57 -369.5 q51 -47 121.5 -76.5t158.5 -29.5h15.5t15.5 2q6 0 13.5 1t15.5 1q-10 147 -13.5 298.5t-1.5 305.5q0 76 3.5 152.5t7.5 152.5h516q-12 -319 -13.5 -639t13.5 -639v0zM1169 1610q-84 -106 -183 -183t-214 -124l-242 49l326 372l313 -114v0z" />
<glyph unicode="&#xfb;" horiz-adv-x="1462" d="M1397 0h-473q-2 23 -5.5 44.5t-5.5 43.5q-4 20 -6 43t-6 45q-10 -14 -21.5 -28.5t-21.5 -28.5q-27 -35 -51.5 -69t-48.5 -60q-186 -2 -359.5 34.5t-330.5 110.5q35 176 48 335t13 304q0 133 -9 259t-26 245h261h261v-13.5v-13.5q-4 -209 -14 -410.5t-57 -369.5 q51 -47 121.5 -76.5t158.5 -29.5h15.5t15.5 2q6 0 13.5 1t15.5 1q-10 147 -13.5 298.5t-1.5 305.5q0 76 3.5 152.5t7.5 152.5h516q-12 -319 -13.5 -639t13.5 -639v0zM1155 1362l-199 -64l-217 195l-209 -190l-200 59l260 344l299 -4l266 -340v0z" />
<glyph unicode="&#xfc;" horiz-adv-x="1462" d="M1397 0h-473q-2 23 -5.5 44.5t-5.5 43.5q-4 20 -6 43t-6 45q-10 -14 -21.5 -28.5t-21.5 -28.5q-27 -35 -51.5 -69t-48.5 -60q-186 -2 -359.5 34.5t-330.5 110.5q35 176 48 335t13 304q0 133 -9 259t-26 245h261h261v-13.5v-13.5q-4 -209 -14 -410.5t-57 -369.5 q51 -47 121.5 -76.5t158.5 -29.5h15.5t15.5 2q6 0 13.5 1t15.5 1q-10 147 -13.5 298.5t-1.5 305.5q0 76 3.5 152.5t7.5 152.5h516q-12 -319 -13.5 -639t13.5 -639v0zM729 1528l-229 -230l-232 230l232 231l229 -231v0zM1223 1528l-232 -230l-229 230l229 231l232 -231v0z " />
<glyph unicode="&#xfd;" horiz-adv-x="714" />
<glyph unicode="&#xfe;" horiz-adv-x="1290" d="M1196 827q18 -33 27.5 -72.5t9.5 -80.5q0 -25 -3 -48.5t-7 -47.5q-20 -94 -65.5 -182.5t-98.5 -147.5q-31 -35 -74 -57.5t-102 -26.5q-88 -4 -168 -3t-152 9q2 -20 3 -42t3 -44q0 -20 1 -42t3 -42h-512q4 37 7.5 73t5.5 70q20 287 13 572.5t-28 562.5h521l-17 -129h21 q131 0 216 -10.5t130 -40.5q88 -63 156.5 -129t109.5 -142v0zM799 647q8 14 11 27.5t1 25.5q0 23 -9 41.5t-26 32.5q-39 37 -83 64.5t-89 50.5q-10 4 -19.5 8t-17.5 8q-6 -117 -8 -232.5t-2 -230.5q80 23 140.5 75t101.5 130v0z" />
<glyph unicode="&#xff;" horiz-adv-x="1349" d="M1229 1278l-502 -1278h-524l186 426l-387 852h485l156 -385l145 385h441v0zM688 1528l-229 -230l-232 230l232 231l229 -231v0zM1182 1528l-232 -230l-229 230l229 231l232 -231v0z" />
<glyph unicode="&#x152;" horiz-adv-x="2334" d="M2228 1065q-125 20 -253 23.5t-257 -7.5v-41.5v-42.5q-2 -23 -2 -43v-43q127 -8 253 -5t251 24l-86 -387h-418v-42t2 -44v-42v-44q127 -8 254 -5t250 21l-86 -387h-505h-507v7t2 5v7.5v5.5q-53 -12 -111.5 -18.5t-121.5 -6.5q-356 0 -571.5 197.5t-215.5 529.5 q0 330 215.5 527.5t571.5 197.5q63 0 121.5 -6t111.5 -19v7.5v5.5q-2 4 -2 7v5h510h508l86 -387v0zM1126 741q0 96 -68.5 165t-164.5 69t-165 -68.5t-69 -165.5q0 -96 69 -164.5t165 -68.5t164.5 68.5t68.5 164.5v0z" />
<glyph unicode="&#x153;" horiz-adv-x="1024" />
<glyph unicode="&#x178;" horiz-adv-x="1533" d="M1397 1452l-572 -1452h-596l213 483l-440 969h551l178 -438l166 438h500v0zM811 1712l-229 -229l-232 229l232 232l229 -232v0zM1305 1712l-232 -229l-229 229l229 232l232 -232v0z" />
<glyph unicode="&#x2c6;" horiz-adv-x="1083" d="M1034 1511l-160 -153l-8 12t-10 12q-25 35 -64.5 63t-89.5 28q-10 0 -21 -1.5t-22 -5.5q-29 -10 -55 -20t-49 -23q-47 -23 -88 -42t-80 -25q-12 -2 -23.5 -2h-21.5q-111 8 -178.5 59t-114.5 139l141 134q8 -6 15.5 -11.5t15.5 -11.5q18 -14 36.5 -26.5t39.5 -22.5 q12 -6 26.5 -9t26.5 -3h7h8q2 0 6 1t6 3q121 47 205 82.5t147 35.5h12.5t12.5 -2q129 -18 185 -78.5t95 -132.5v0z" />
<glyph unicode="&#x2dc;" horiz-adv-x="1067" d="M930 1382l-199 -63l-217 194l-209 -190l-201 59l261 344l299 -4l266 -340v0z" />
<glyph unicode="&#x2000;" horiz-adv-x="981" />
<glyph unicode="&#x2001;" horiz-adv-x="1962" />
<glyph unicode="&#x2002;" horiz-adv-x="981" />
<glyph unicode="&#x2003;" horiz-adv-x="1962" />
<glyph unicode="&#x2004;" horiz-adv-x="654" />
<glyph unicode="&#x2005;" horiz-adv-x="490" />
<glyph unicode="&#x2006;" horiz-adv-x="327" />
<glyph unicode="&#x2007;" horiz-adv-x="327" />
<glyph unicode="&#x2008;" horiz-adv-x="245" />
<glyph unicode="&#x2009;" horiz-adv-x="392" />
<glyph unicode="&#x200a;" horiz-adv-x="109" />
<glyph unicode="&#x2010;" horiz-adv-x="518" d="M494 561h-471v279h471v-279v0z" />
<glyph unicode="&#x2011;" horiz-adv-x="518" d="M494 561h-471v279h471v-279v0z" />
<glyph unicode="&#x2012;" horiz-adv-x="518" d="M494 561h-471v279h471v-279v0z" />
<glyph unicode="&#x2013;" horiz-adv-x="911" d="M928 561h-942v279h942v-279v0z" />
<glyph unicode="&#x2014;" horiz-adv-x="1816" d="M1849 561h-1884v279h1884v-279v0z" />
<glyph unicode="&#x2018;" horiz-adv-x="655" d="M629 1704l-156 -555h-70.5h-148.5h-152h-69l24 158q16 111 116.5 187.5t217.5 127.5q66 27 128.5 47.5t109.5 34.5v0z" />
<glyph unicode="&#x2019;" horiz-adv-x="655" d="M627 1669l-25 -158q-16 -111 -116.5 -187.5t-217.5 -127.5q-66 -27 -128 -47.5t-109 -34.5l155 555h71h149h152h69v0z" />
<glyph unicode="&#x201a;" horiz-adv-x="655" d="M627 285l-25 -158q-16 -111 -116.5 -186.5t-217.5 -126.5q-66 -27 -128 -47.5t-109 -34.5l155 553h71h149h152h69v0z" />
<glyph unicode="&#x201c;" horiz-adv-x="1140" d="M629 1683l-156 -555h-70.5h-148.5h-152h-69l24 158q16 111 116.5 187.5t217.5 128.5q66 27 128.5 47t109.5 34v0zM1141 1683l-156 -555h-70.5h-148.5h-152h-69l24 158q16 111 116.5 187.5t217.5 128.5q66 27 128.5 47t109.5 34v0z" />
<glyph unicode="&#x201d;" horiz-adv-x="1140" d="M627 1669l-25 -158q-16 -111 -116.5 -187.5t-217.5 -127.5q-66 -27 -128 -47.5t-109 -34.5l155 555h71h149h152h69v0zM1139 1669l-25 -158q-16 -111 -116.5 -187.5t-217.5 -127.5q-66 -27 -128 -47.5t-109 -34.5l155 555h71h149h152h69v0z" />
<glyph unicode="&#x201e;" horiz-adv-x="1112" d="M608 285l-24 -158q-16 -111 -116.5 -186.5t-217.5 -126.5q-66 -27 -128.5 -47.5t-109.5 -34.5l156 553h70.5h148.5h153h68v0zM1100 285l-25 -158q-16 -111 -116.5 -186.5t-217.5 -126.5q-66 -27 -128 -47.5t-109 -34.5l155 553h71h149h153h68v0z" />
<glyph unicode="&#x2022;" horiz-adv-x="872" d="M815 770l-340 -346l-65 41q-66 41 -146 90q-76 49 -141.5 90t-67.5 43l344 387l416 -305v0z" />
<glyph unicode="&#x2026;" horiz-adv-x="1875" d="M612 231l-272 -276q0 2 -52 33.5t-116 70.5q-61 39 -113.5 72t-54.5 35l275 309l333 -244v0zM1247 231l-272 -276q0 2 -52.5 33.5t-115.5 70.5q-61 39 -113.5 72t-54.5 35l274 309l334 -244v0zM1882 231l-272 -276q0 2 -52.5 33.5t-115.5 70.5q-61 39 -113.5 72t-54.5 35 l274 309l334 -244v0z" />
<glyph unicode="&#x202f;" horiz-adv-x="392" />
<glyph unicode="&#x2039;" horiz-adv-x="471" d="M440 934l-194 -217l190 -209l-59 -201l-344 260l4 299l340 267l63 -199v0z" />
<glyph unicode="&#x203a;" horiz-adv-x="471" d="M438 567l-344 -260l-59 201l190 209l-194 217l63 199l340 -267l4 -299v0z" />
<glyph unicode="&#x205f;" horiz-adv-x="490" />
<glyph unicode="&#x2122;" horiz-adv-x="763" d="M305 1489h-67v-492h-119v492h-66v43h252v-43v0zM711 997h-119v445l-107 -242l-112 248v-451h-39v533h123l65 -154l70 154h119v-533v0z" />
<glyph unicode="&#x25fc;" horiz-adv-x="1280" d="M0 1280h1280v-1280h-1280v1280z" />
</font>
</defs>
</svg>
